<svg xmlns="http://www.w3.org/2000/svg" viewBox="0 0 564 372" enable-background="new 0 0 564 372"><g fill="#f79332"><path d="M210.1,28v-9.9h6.3v1.8H212v2.5h3.9v1.8H212V28H210.1z"/><path d="m222.4 17.9c2.7 0 5.1 2 5.1 5.2 0 3.2-2.4 5.2-5.1 5.2-2.7 0-5.1-2-5.1-5.2 0-3.3 2.4-5.2 5.1-5.2m0 8.4c1.5 0 3.1-1.1 3.1-3.3s-1.6-3.3-3.1-3.3c-1.5 0-3.1 1.1-3.1 3.3s1.6 3.3 3.1 3.3"/><path d="m232.1 24.2h-1v3.8h-1.9v-9.9h3.9c1.9 0 3.2 1.3 3.2 3.1 0 1.4-.8 2.4-2.1 2.8l2.1 4.1h-2.2l-2-3.9m.6-1.7c1 0 1.6-.6 1.6-1.4 0-.8-.6-1.4-1.6-1.4h-1.6v2.8h1.6"/><path d="m247.1 28v-7l-2.9 7h-1.6l-2.9-6.9v6.9h-1.8v-9.9h2.5l3 7.2 2.9-7.2h2.6v9.9h-1.8"/><path d="m251.3 28v-9.9h2v9.9h-2"/><path d="m261.9 28l-4.5-7v7h-1.9v-9.9h2.4l4.1 6.6v-6.6h1.9v9.9h-2"/><path d="m273.7 28l-.1-1.1c-.4.7-1.4 1.3-2.9 1.3-2.7 0-5-2-5-5.2 0-3.2 2.4-5.2 5.1-5.2 2.6 0 4 1.5 4.5 3.1l-1.8.7c-.3-.9-1.1-1.9-2.7-1.9-1.5 0-3.1 1-3.1 3.4 0 2.2 1.5 3.4 3.1 3.4 1.8 0 2.5-1.2 2.7-1.9h-3.1v-1.7h5v5.1h-1.7"/><path d="m191.1 27.6v-5.5h-1.9v-.8c1.1 0 1.8-.6 2-1.5h1v7.8h-1.1"/></g><g fill="#717171"><path d="m214.4 41.1h1v7.2h-1v-3.3h-3.7v3.3h-1v-7.2h1v3h3.7v-3"/><path d="m216.8 42.1v-1h.9v1h-.9m.9 6.2h-.9v-5.2h.9v5.2"/><path d="m223.4 47.9c0 .8 0 2.6-2.4 2.6-.6 0-1.8-.2-2-1.6h.9c.2.8 1 .8 1.2.8 1.5 0 1.5-1.2 1.5-1.8v-.2c-.2.4-.7.7-1.4.7-1.8 0-2.3-1.7-2.3-2.9 0-1.5.8-2.6 2.2-2.6 1 0 1.3.6 1.6.9v-.7h.8v4.8zm-2.3-.2c.6 0 1.4-.4 1.4-1.8 0-.8-.1-2.2-1.4-2.2-1.4 0-1.4 1.3-1.4 2 0 1.1.4 2 1.4 2"/><path d="m228.8 48.3h-.8v-3.4c0-.7-.2-1.2-1-1.2-.7 0-1.5.4-1.5 1.7v2.8h-.9v-7.2h.9v2.6c.2-.3.7-.8 1.5-.8.8 0 1.8.3 1.8 1.8v3.7"/><path d="m237.3 48.3h-.8v-.7c-.4.7-1 .9-1.5.9-1.8 0-2.3-1.7-2.3-2.9 0-1.5.8-2.6 2.2-2.6 1 0 1.3.6 1.6.9v-.1-2.6h.9v7.1zm-2.3-.6c.6 0 1.4-.4 1.4-1.8 0-.8-.1-2.2-1.4-2.2-1.4 0-1.4 1.3-1.4 2-.1 1.1.4 2 1.4 2"/><path d="m242.9 46.7c0 .2-.3 1-.9 1.4-.2.2-.6.4-1.4.4-1.5 0-2.3-1.1-2.3-2.6 0-1.6.8-2.9 2.5-2.9 1.5 0 2.2 1.2 2.2 3h-3.8c0 1.1.5 1.7 1.5 1.7.8 0 1.3-.6 1.3-1h.9m-.8-1.4c-.1-.8-.4-1.6-1.5-1.6-.8 0-1.4.8-1.4 1.6h2.9"/><path d="m248.4 47.9c0 .8 0 2.6-2.4 2.6-.6 0-1.8-.2-2-1.6h.9c.2.8 1 .8 1.2.8 1.5 0 1.5-1.2 1.5-1.8v-.2c-.2.4-.7.7-1.4.7-1.8 0-2.3-1.7-2.3-2.9 0-1.5.8-2.6 2.2-2.6 1 0 1.3.6 1.6.9v-.7h.8v4.8zm-2.3-.2c.6 0 1.4-.4 1.4-1.8 0-.8-.1-2.2-1.4-2.2-1.4 0-1.4 1.3-1.4 2 0 1.1.5 2 1.4 2"/><path d="m250.5 48.3h-.9v-5.2h.8v.9c.3-.6.8-1 1.5-1 .1 0 .2 0 .2 0v.9h-.3c-.8 0-1.3.6-1.3 1.4v3"/><path d="m257.1 46.7c0 .2-.3 1-.9 1.4-.2.2-.6.4-1.4.4-1.5 0-2.3-1.1-2.3-2.6 0-1.6.8-2.9 2.5-2.9 1.5 0 2.2 1.2 2.2 3h-3.8c0 1.1.5 1.7 1.5 1.7.8 0 1.3-.6 1.3-1h.9m-.9-1.4c-.1-.8-.4-1.6-1.5-1.6-.8 0-1.4.8-1.4 1.6h2.9"/><path d="m262.6 46.7c0 .2-.3 1-.9 1.4-.2.2-.6.4-1.4.4-1.5 0-2.3-1.1-2.3-2.6 0-1.6.8-2.9 2.5-2.9 1.5 0 2.2 1.2 2.2 3h-3.8c0 1.1.5 1.7 1.5 1.7.8 0 1.3-.6 1.3-1h.9m-.8-1.4c-.1-.8-.4-1.6-1.5-1.6-.8 0-1.4.8-1.4 1.6h2.9"/><path d="m268.7 42.9c1.7 0 2.4 1.4 2.4 2.8 0 1.3-.8 2.8-2.4 2.8s-2.4-1.4-2.4-2.8c-.1-1.3.7-2.8 2.4-2.8m0 4.8c1.3 0 1.5-1.3 1.5-2 0-.7-.3-2-1.5-2-1.3 0-1.5 1.3-1.5 2-.1.7.2 2 1.5 2"/><path d="m273.2 43.8v4.5h-.9v-4.5h-.7v-.7h.7v-.9c0-.8.5-1.1 1.4-1.1.1 0 .3 0 .4 0v.8c-.1 0-.2 0-.4 0-.4 0-.5.2-.5.6v.6h.9v.7h-.9"/><path d="m282 47.9c0 .8 0 2.6-2.4 2.6-.6 0-1.8-.2-2-1.6h.9c.2.8 1 .8 1.2.8 1.5 0 1.5-1.2 1.5-1.8v-.2c-.2.4-.7.7-1.4.7-1.8 0-2.3-1.7-2.3-2.9 0-1.5.8-2.6 2.2-2.6 1 0 1.3.6 1.6.9v-.7h.8v4.8zm-2.3-.2c.6 0 1.4-.4 1.4-1.8 0-.8-.1-2.2-1.4-2.2-1.4 0-1.4 1.3-1.4 2 0 1.1.5 2 1.4 2"/><path d="m286.6 48.3v-.8c-.4.6-.8.9-1.7.9-.8 0-1.7-.4-1.7-1.6v-3.8h.9v3.5c0 .9.4 1.1 1 1.1 1.1 0 1.4-1 1.4-1.7v-2.9h.9v5.2h-.8z"/><path d="m288.8 42.1v-1h.9v1h-.9m.9 6.2h-.9v-5.2h.9v5.2"/><path d="m295.3 48.3h-.8v-.7c-.4.7-1 .9-1.5.9-1.8 0-2.3-1.7-2.3-2.9 0-1.5.8-2.6 2.2-2.6 1 0 1.3.6 1.6.9v-.1-2.6h.9v7.1zm-2.3-.6c.6 0 1.4-.4 1.4-1.8 0-.8-.1-2.2-1.4-2.2-1.4 0-1.4 1.3-1.4 2 0 1.1.5 2 1.4 2"/><path d="m296.5 44.7c0-1.2.9-1.7 2.2-1.7.4 0 1.9.1 1.9 1.5v3c0 .2.1.3.3.3.1 0 .2 0 .3 0v.6c-.1 0-.3.1-.5.1-.8 0-.9-.4-.9-.8-.3.4-.9.8-1.9.8-1 0-1.6-.6-1.6-1.5 0-.4.1-1.5 1.6-1.6l1.4-.2c.2 0 .5-.1.5-.6 0-.5-.4-.8-1.2-.8-1 0-1.1.6-1.2 1h-.9zm3.2 1c-.1.1-.4.2-1.4.3-.4.1-1.1.2-1.1.8 0 .6.3.9.9.9.8 0 1.6-.5 1.6-1.2v-.8"/><path d="m306.4 48.3h-.9v-3.2c0-.9-.3-1.4-1.1-1.4-.5 0-1.4.3-1.4 1.7v2.8h-.9v-5.2h.8v.7c.2-.3.7-.9 1.6-.9.8 0 1.8.3 1.8 1.8v3.7z"/><path d="m310.9 44.9c-.1-.7-.5-1.1-1.2-1.1-1.1 0-1.4 1-1.4 2 0 .9.2 2 1.4 2 .6 0 1.1-.4 1.2-1.2h.8c-.1.8-.6 2-2.1 2-1.5 0-2.3-1.1-2.3-2.6 0-1.6.8-2.9 2.5-2.9 1.4 0 1.9 1 2 1.9h-.9z"/><path d="m317.1 46.7c0 .2-.3 1-.9 1.4-.2.2-.6.4-1.4.4-1.5 0-2.3-1.1-2.3-2.6 0-1.6.8-2.9 2.5-2.9 1.5 0 2.2 1.2 2.2 3h-3.8c0 1.1.5 1.7 1.5 1.7.8 0 1.3-.6 1.3-1h.9m-.8-1.4c-.1-.8-.4-1.6-1.5-1.6-.8 0-1.4.8-1.4 1.6h2.9"/><path d="m325.3 48.3h-.9v-3.2c0-.9-.3-1.4-1.1-1.4-.5 0-1.4.3-1.4 1.7v2.8h-.9v-5.2h.8v.7c.2-.3.7-.9 1.6-.9.8 0 1.8.3 1.8 1.8v3.7z"/><path d="m331 46.7c0 .2-.3 1-.9 1.4-.2.2-.6.4-1.4.4-1.5 0-2.3-1.1-2.3-2.6 0-1.6.8-2.9 2.5-2.9 1.5 0 2.2 1.2 2.2 3h-3.8c0 1.1.5 1.7 1.5 1.7.8 0 1.3-.6 1.3-1h.9m-.8-1.4c-.1-.8-.4-1.6-1.5-1.6-.8 0-1.4.8-1.4 1.6h2.9"/><path d="m336.6 46.7c0 .2-.3 1-.9 1.4-.2.2-.6.4-1.4.4-1.5 0-2.3-1.1-2.3-2.6 0-1.6.8-2.9 2.5-2.9 1.5 0 2.2 1.2 2.2 3h-3.8c0 1.1.5 1.7 1.5 1.7.8 0 1.3-.6 1.3-1h.9m-.9-1.4c-.1-.8-.4-1.6-1.5-1.6-.8 0-1.4.8-1.4 1.6h2.9"/><path d="m342 48.3h-.8v-.7c-.4.7-1 .9-1.5.9-1.8 0-2.3-1.7-2.3-2.9 0-1.5.8-2.6 2.2-2.6 1 0 1.3.6 1.6.9v-.1-2.6h.9v7.1zm-2.3-.6c.6 0 1.4-.4 1.4-1.8 0-.8-.1-2.2-1.4-2.2-1.4 0-1.4 1.3-1.4 2 0 1.1.5 2 1.4 2"/><path d="m347.7 46.7c0 .2-.3 1-.9 1.4-.2.2-.6.4-1.4.4-1.5 0-2.3-1.1-2.3-2.6 0-1.6.8-2.9 2.5-2.9 1.5 0 2.2 1.2 2.2 3h-3.8c0 1.1.5 1.7 1.5 1.7.8 0 1.3-.6 1.3-1h.9m-.8-1.4c-.1-.8-.4-1.6-1.5-1.6-.8 0-1.4.8-1.4 1.6h2.9"/><path d="m353.2 48.3h-.8v-.7c-.4.7-1 .9-1.5.9-1.8 0-2.3-1.7-2.3-2.9 0-1.5.8-2.6 2.2-2.6 1 0 1.3.6 1.6.9v-.1-2.6h.9v7.1zm-2.4-.6c.6 0 1.4-.4 1.4-1.8 0-.8-.1-2.2-1.4-2.2-1.4 0-1.4 1.3-1.4 2 0 1.1.5 2 1.4 2"/><path d="m210.7 57.8v4.5h-.9v-4.5h-.7v-.7h.7v-.9c0-.8.5-1.1 1.4-1.1.1 0 .3 0 .4 0v.8c-.1 0-.2 0-.4 0-.4 0-.5.2-.5.6v.6h.9v.7h-.9"/><path d="m213.4 62.3h-.9v-5.2h.8v.9c.3-.6.8-1 1.5-1 .1 0 .2 0 .2 0v.9h-.3c-.8 0-1.3.6-1.3 1.4v3"/><path d="m217.6 56.9c1.7 0 2.4 1.4 2.4 2.8 0 1.3-.8 2.8-2.4 2.8s-2.4-1.4-2.4-2.8c0-1.3.8-2.8 2.4-2.8m0 4.8c1.3 0 1.5-1.3 1.5-2 0-.7-.3-2-1.5-2-1.3 0-1.5 1.3-1.5 2 0 .7.3 2 1.5 2"/><path d="m221.1 57.1h.8v.7c.2-.3.6-.9 1.6-.9s1.2.6 1.4.8c.4-.5.8-.8 1.6-.8.6 0 1.6.3 1.6 1.8v3.6h-.9v-3.4c0-.7-.2-1.2-1-1.2-.7 0-1.2.7-1.2 1.4v3.2h-.9v-3.6c0-.4-.2-1-.8-1-.5 0-1.4.3-1.4 1.7v2.8h-.9v-5.1z"/><path d="m232.2 57.1h.8v.7c.2-.3.6-.9 1.6-.9s1.2.6 1.4.8c.4-.5.8-.8 1.6-.8.6 0 1.6.3 1.6 1.8v3.6h-.9v-3.4c0-.7-.2-1.2-1-1.2-.7 0-1.2.7-1.2 1.4v3.2h-.9v-3.6c0-.4-.2-1-.8-1-.5 0-1.4.3-1.4 1.7v2.8h-.9v-5.1z"/><path d="m240.5 58.7c0-1.2.9-1.7 2.2-1.7.4 0 1.9.1 1.9 1.5v3c0 .2.1.3.3.3.1 0 .2 0 .3 0v.6c-.1 0-.3.1-.5.1-.8 0-.9-.4-.9-.8-.3.4-.9.8-1.9.8-1 0-1.6-.6-1.6-1.5 0-.4.1-1.5 1.6-1.6l1.4-.2c.2 0 .5-.1.5-.6 0-.5-.4-.8-1.2-.8-1 0-1.1.6-1.2 1h-.9zm3.2 1c-.1.1-.4.2-1.4.3-.4.1-1.1.2-1.1.8 0 .6.3.9.9.9.8 0 1.6-.5 1.6-1.2v-.8"/><path d="m250.3 62.3h-.9v-3.2c0-.9-.3-1.4-1.1-1.4-.5 0-1.4.3-1.4 1.7v2.8h-.9v-5.2h.8v.7c.2-.3.7-.9 1.6-.9.8 0 1.8.3 1.8 1.8v3.7z"/><path d="m251.6 58.7c0-1.2.9-1.7 2.2-1.7.4 0 1.9.1 1.9 1.5v3c0 .2.1.3.3.3.1 0 .2 0 .3 0v.6c-.1 0-.3.1-.5.1-.8 0-.9-.4-.9-.8-.3.4-.9.8-1.9.8-1 0-1.6-.6-1.6-1.5 0-.4.1-1.5 1.6-1.6l1.4-.2c.2 0 .5-.1.5-.6 0-.5-.4-.8-1.2-.8-1 0-1.1.6-1.2 1h-.9zm3.2 1c-.1.1-.4.2-1.4.3-.4.1-1.1.2-1.1.8 0 .6.3.9.9.9.8 0 1.6-.5 1.6-1.2v-.8"/><path d="m261.5 61.9c0 .8 0 2.6-2.4 2.6-.6 0-1.8-.2-2-1.6h.9c.2.8 1 .8 1.2.8 1.5 0 1.5-1.2 1.5-1.8v-.2c-.2.4-.7.7-1.4.7-1.8 0-2.3-1.7-2.3-2.9 0-1.5.8-2.6 2.2-2.6 1 0 1.3.6 1.6.9v-.7h.8v4.8zm-2.2-.2c.6 0 1.4-.4 1.4-1.8 0-.8-.1-2.2-1.4-2.2-1.4 0-1.4 1.3-1.4 2-.1 1.1.4 2 1.4 2"/><path d="m267.2 60.7c0 .2-.3 1-.9 1.4-.2.2-.6.4-1.4.4-1.5 0-2.3-1.1-2.3-2.6 0-1.6.8-2.9 2.5-2.9 1.5 0 2.2 1.2 2.2 3h-3.8c0 1.1.5 1.7 1.5 1.7.8 0 1.3-.6 1.3-1h.9m-.9-1.4c-.1-.8-.4-1.6-1.5-1.6-.8 0-1.4.8-1.4 1.6h2.9"/><path d="m269.3 62.3h-.9v-5.2h.8v.9c.3-.6.8-1 1.5-1 .1 0 .2 0 .2 0v.9h-.3c-.8 0-1.3.6-1.3 1.4v3"/><path d="m271.3 61.3h1v1c0 1.4-.8 1.5-1 1.5v-.5c.4 0 .5-.5.5-1h-.5v-1"/><path d="m276.7 56.1v-1h.9v1h-.9m.9 6.2h-.9v-5.2h.9v5.2"/><path d="m283.2 62.3h-.9v-3.2c0-.9-.3-1.4-1.1-1.4-.5 0-1.4.3-1.4 1.7v2.8h-.9v-5.2h.8v.7c.2-.3.7-.9 1.6-.9.8 0 1.8.3 1.8 1.8v3.7z"/><path d="m288.8 62.3h-.8v-.7c-.4.7-1 .9-1.5.9-1.8 0-2.3-1.7-2.3-2.9 0-1.5.8-2.6 2.2-2.6 1 0 1.3.6 1.6.9v-.1-2.6h.9v7.1zm-2.3-.6c.6 0 1.4-.4 1.4-1.8 0-.8-.1-2.2-1.4-2.2-1.4 0-1.4 1.3-1.4 2 0 1.1.4 2 1.4 2"/><path d="m290.1 56.1v-1h.9v1h-.9m.8 6.2h-.9v-5.2h.9v5.2"/><path d="m295.6 57.1h1l-2 5.2h-.9l-1.9-5.2h1l1.4 4.3 1.4-4.3"/><path d="m297.3 56.1v-1h.9v1h-.9m.8 6.2h-.9v-5.2h.9v5.2"/><path d="m303.8 62.3h-.8v-.7c-.4.7-1 .9-1.5.9-1.8 0-2.3-1.7-2.3-2.9 0-1.5.8-2.6 2.2-2.6 1 0 1.3.6 1.6.9v-.1-2.6h.9v7.1zm-2.3-.6c.6 0 1.4-.4 1.4-1.8 0-.8-.1-2.2-1.4-2.2-1.4 0-1.4 1.3-1.4 2 0 1.1.4 2 1.4 2"/><path d="m308.4 62.3v-.8c-.4.6-.8.9-1.7.9-.8 0-1.7-.4-1.7-1.6v-3.8h.9v3.5c0 .9.4 1.1 1 1.1 1.1 0 1.4-1 1.4-1.7v-2.9h.9v5.2h-.8z"/><path d="m310.6 58.7c0-1.2.9-1.7 2.2-1.7.4 0 1.9.1 1.9 1.5v3c0 .2.1.3.3.3.1 0 .2 0 .3 0v.6c-.1 0-.3.1-.5.1-.8 0-.9-.4-.9-.8-.3.4-.9.8-1.9.8-1 0-1.6-.6-1.6-1.5 0-.4.1-1.5 1.6-1.6l1.4-.2c.2 0 .5-.1.5-.6 0-.5-.4-.8-1.2-.8-1 0-1.1.6-1.2 1h-.9zm3.2 1c-.1.1-.4.2-1.4.3-.4.1-1.1.2-1.1.8 0 .6.3.9.9.9.8 0 1.6-.5 1.6-1.2v-.8"/><path d="m317 62.3h-.9v-7.2h.9v7.2"/><path d="m322.1 62.3h-.9v-5.2h.8v.9c.3-.6.8-1 1.5-1 .1 0 .2 0 .2 0v.9h-.3c-.8 0-1.3.6-1.3 1.4v3"/><path d="m326.4 56.9c1.7 0 2.4 1.4 2.4 2.8 0 1.3-.8 2.8-2.4 2.8s-2.4-1.5-2.4-2.8c0-1.3.7-2.8 2.4-2.8m0 4.8c1.3 0 1.5-1.3 1.5-2 0-.7-.3-2-1.5-2-1.3 0-1.5 1.3-1.5 2 0 .7.2 2 1.5 2"/><path d="m330.7 62.3h-.9v-7.2h.9v7.2"/><path d="m336.5 60.7c0 .2-.3 1-.9 1.4-.2.2-.6.4-1.4.4-1.5 0-2.3-1.1-2.3-2.6 0-1.6.8-2.9 2.5-2.9 1.5 0 2.2 1.2 2.2 3h-3.8c0 1.1.5 1.7 1.5 1.7.8 0 1.3-.6 1.3-1h.9m-.8-1.4c-.1-.8-.4-1.6-1.5-1.6-.8 0-1.4.8-1.4 1.6h2.9"/><path d="m340.6 58.6c0-.3-.1-.9-1.2-.9-.3 0-1 .1-1 .7 0 .4.3.5 1 .7l.9.2c1.1.3 1.5.7 1.5 1.4 0 1.1-.9 1.7-2.1 1.7-2.1 0-2.2-1.2-2.2-1.8h.8c0 .4.2 1.1 1.4 1.1.6 0 1.2-.2 1.2-.8 0-.4-.3-.6-1-.7l-1-.2c-.7-.2-1.2-.5-1.2-1.3 0-1.1 1-1.7 2-1.7 1.9 0 2 1.4 2 1.6h-1.1"/><path d="m345.4 58.7c0-1.2.9-1.7 2.2-1.7.4 0 1.9.1 1.9 1.5v3c0 .2.1.3.3.3.1 0 .2 0 .3 0v.6c-.1 0-.3.1-.5.1-.8 0-.9-.4-.9-.8-.3.4-.9.8-1.9.8-1 0-1.6-.6-1.6-1.5 0-.4.1-1.5 1.6-1.6l1.4-.2c.2 0 .5-.1.5-.6 0-.5-.4-.8-1.2-.8-1 0-1.1.6-1.2 1h-.9zm3.2 1c-.1.1-.4.2-1.4.3-.4.1-1.1.2-1.1.8 0 .6.3.9.9.9.8 0 1.6-.5 1.6-1.2v-.8"/><path d="m352 62.3h-.9v-5.2h.8v.9c.3-.6.8-1 1.5-1 .1 0 .2 0 .2 0v.9h-.3c-.8 0-1.3.6-1.3 1.4v3"/><path d="m358.5 60.7c0 .2-.3 1-.9 1.4-.2.2-.6.4-1.4.4-1.5 0-2.3-1.1-2.3-2.6 0-1.6.8-2.9 2.5-2.9 1.5 0 2.2 1.2 2.2 3h-3.8c0 1.1.5 1.7 1.5 1.7.8 0 1.3-.6 1.3-1h.9m-.8-1.4c-.1-.8-.4-1.6-1.5-1.6-.8 0-1.4.8-1.4 1.6h2.9"/><path d="m213 76.3v-.8c-.4.6-.8.9-1.7.9-.8 0-1.7-.4-1.7-1.6v-3.8h.9v3.5c0 .9.4 1.1 1 1.1 1.1 0 1.4-1 1.4-1.7v-2.9h.9v5.2h-.8z"/><path d="m219.4 76.3h-.9v-3.2c0-.9-.3-1.4-1.1-1.4-.5 0-1.4.3-1.4 1.7v2.8h-.9v-5.2h.8v.7c.2-.3.7-.9 1.6-.9.8 0 1.8.3 1.8 1.8v3.7z"/><path d="m224 72.9c-.1-.7-.5-1.1-1.2-1.1-1.1 0-1.4 1-1.4 2 0 .9.2 2 1.4 2 .6 0 1.1-.4 1.2-1.2h.8c-.1.8-.6 2-2.1 2-1.5 0-2.3-1.1-2.3-2.6 0-1.6.8-2.9 2.5-2.9 1.4 0 1.9 1 2 1.9h-.9z"/><path d="m226.6 76.3h-.9v-7.2h.9v7.2"/><path d="m232.4 74.7c0 .2-.3 1-.9 1.4-.2.2-.6.4-1.4.4-1.5 0-2.3-1.1-2.3-2.6 0-1.6.8-2.9 2.5-2.9 1.5 0 2.2 1.2 2.2 3h-3.8c0 1.1.5 1.7 1.5 1.7.8 0 1.3-.6 1.3-1h.9m-.9-1.4c-.1-.8-.4-1.6-1.5-1.6-.8 0-1.4.8-1.4 1.6h2.9"/><path d="m233.5 72.7c0-1.2.9-1.7 2.2-1.7.4 0 1.9.1 1.9 1.5v3c0 .2.1.3.3.3.1 0 .2 0 .3 0v.6c-.1 0-.3.1-.5.1-.8 0-.9-.4-.9-.8-.3.4-.9.8-1.9.8-1 0-1.6-.6-1.6-1.5 0-.4.1-1.5 1.6-1.6l1.4-.2c.2 0 .5-.1.5-.6 0-.5-.4-.8-1.2-.8-1 0-1.1.6-1.2 1h-.9zm3.2 1c-.1.1-.4.2-1.4.3-.4.1-1.1.2-1.1.8 0 .6.3.9.9.9.8 0 1.6-.5 1.6-1.2v-.8"/><path d="m240.1 76.3h-.9v-5.2h.8v.9c.3-.6.8-1 1.5-1 .1 0 .2 0 .2 0v.9h-.3c-.8 0-1.3.6-1.3 1.4v3"/><path d="m242.1 75.3h1v1c0 1.4-.8 1.5-1 1.5v-.5c.4 0 .5-.5.5-1h-.5v-1"/><path d="m247.4 71.1h.8v.7c.2-.3.6-.9 1.6-.9 1.4 0 2.2 1.1 2.2 2.6 0 1.2-.5 2.9-2.3 2.9-.7 0-1.2-.3-1.4-.7v2.6h-.9v-7.2m2.2 4.6c1 0 1.4-.9 1.4-2 0-.7-.1-2-1.4-2-1.3 0-1.4 1.4-1.4 2.2 0 1.4.9 1.8 1.4 1.8"/><path d="m254 76.3h-.9v-5.2h.8v.9c.3-.6.8-1 1.5-1 .1 0 .2 0 .2 0v.9h-.3c-.8 0-1.3.6-1.3 1.4v3"/><path d="m258.3 70.9c1.7 0 2.4 1.4 2.4 2.8 0 1.3-.8 2.8-2.4 2.8s-2.4-1.4-2.4-2.8c-.1-1.3.7-2.8 2.4-2.8m0 4.8c1.3 0 1.5-1.3 1.5-2 0-.7-.3-2-1.5-2-1.3 0-1.5 1.3-1.5 2-.1.7.2 2 1.5 2"/><path d="m265 72.9c-.1-.7-.5-1.1-1.2-1.1-1.1 0-1.4 1-1.4 2 0 .9.2 2 1.4 2 .6 0 1.1-.4 1.2-1.2h.8c-.1.8-.6 2-2.1 2-1.5 0-2.3-1.1-2.3-2.6 0-1.6.8-2.9 2.5-2.9 1.4 0 1.9 1 2 1.9h-.9z"/><path d="m271.1 74.7c0 .2-.3 1-.9 1.4-.2.2-.6.4-1.4.4-1.5 0-2.3-1.1-2.3-2.6 0-1.6.8-2.9 2.5-2.9 1.5 0 2.2 1.2 2.2 3h-3.8c0 1.1.5 1.7 1.5 1.7.8 0 1.3-.6 1.3-1h.9m-.8-1.4c-.1-.8-.4-1.6-1.5-1.6-.8 0-1.4.8-1.4 1.6h2.9"/><path d="m275.2 72.6c0-.3-.1-.9-1.2-.9-.3 0-1 .1-1 .7 0 .4.3.5 1 .7l.9.2c1.1.3 1.5.7 1.5 1.4 0 1.1-.9 1.7-2.1 1.7-2.1 0-2.2-1.2-2.2-1.8h.8c0 .4.2 1.1 1.4 1.1.6 0 1.2-.2 1.2-.8 0-.4-.3-.6-1-.7l-1-.2c-.7-.2-1.2-.5-1.2-1.3 0-1.1 1-1.7 2-1.7 1.9 0 2 1.4 2 1.6h-1.1"/><path d="m280.2 72.6c0-.3-.1-.9-1.2-.9-.3 0-1 .1-1 .7 0 .4.3.5 1 .7l.9.2c1.1.3 1.5.7 1.5 1.4 0 1.1-.9 1.7-2.1 1.7-2.1 0-2.2-1.2-2.2-1.8h.8c0 .4.2 1.1 1.4 1.1.6 0 1.2-.2 1.2-.8 0-.4-.3-.6-1-.7l-1-.2c-.7-.2-1.2-.5-1.2-1.3 0-1.1 1-1.7 2-1.7 1.9 0 2 1.4 2 1.6h-1.1"/><path d="m289.3 76.3h-.9v-3.2c0-.9-.3-1.4-1.1-1.4-.5 0-1.4.3-1.4 1.7v2.8h-.9v-5.2h.8v.7c.2-.3.7-.9 1.6-.9.8 0 1.8.3 1.8 1.8v3.7z"/><path d="m292.7 70.9c1.7 0 2.4 1.4 2.4 2.8 0 1.3-.8 2.8-2.4 2.8s-2.4-1.4-2.4-2.8c0-1.3.7-2.8 2.4-2.8m0 4.8c1.3 0 1.5-1.3 1.5-2 0-.7-.3-2-1.5-2-1.3 0-1.5 1.3-1.5 2 0 .7.3 2 1.5 2"/><path d="m297.2 71.8v3.4c0 .4.3.4.5.4h.3v.7c-.3 0-.6.1-.7.1-.9 0-1.1-.5-1.1-1.1v-3.4h-.7v-.7h.7v-1.5h.9v1.5h.8v.7h-.7z"/><path d="m303.6 76.3h-.9l-1.5-5.2h1l1 4.1 1-4.1h1l1 4.1 1.1-4.1h.9l-1.5 5.2h-.9l-1.1-4-1.1 4"/><path d="m313.3 74.7c0 .2-.3 1-.9 1.4-.2.2-.6.4-1.4.4-1.5 0-2.3-1.1-2.3-2.6 0-1.6.8-2.9 2.5-2.9 1.5 0 2.2 1.2 2.2 3h-3.8c0 1.1.5 1.7 1.5 1.7.8 0 1.3-.6 1.3-1h.9m-.9-1.4c-.1-.8-.4-1.6-1.5-1.6-.8 0-1.4.8-1.4 1.6h2.9"/><path d="m315.3 76.3h-.9v-7.2h.9v7.2"/><path d="m317.5 76.3h-.9v-7.2h.9v7.2"/><path d="m326 74.7c0 .2-.3 1-.9 1.4-.2.2-.6.4-1.4.4-1.5 0-2.3-1.1-2.3-2.6 0-1.6.8-2.9 2.5-2.9 1.5 0 2.2 1.2 2.2 3h-3.8c0 1.1.5 1.7 1.5 1.7.8 0 1.3-.6 1.3-1h.9m-.8-1.4c-.1-.8-.4-1.6-1.5-1.6-.8 0-1.4.8-1.4 1.6h2.9"/><path d="m330.1 72.6c0-.3-.1-.9-1.2-.9-.3 0-1 .1-1 .7 0 .4.3.5 1 .7l.9.2c1.1.3 1.5.7 1.5 1.4 0 1.1-.9 1.7-2.1 1.7-2.1 0-2.2-1.2-2.2-1.8h.8c0 .4.2 1.1 1.4 1.1.6 0 1.2-.2 1.2-.8 0-.4-.3-.6-1-.7l-1-.2c-.7-.2-1.2-.5-1.2-1.3 0-1.1 1-1.7 2-1.7 1.9 0 2 1.4 2 1.6h-1.1"/><path d="m333.2 71.8v3.4c0 .4.3.4.5.4h.3v.7c-.3 0-.6.1-.7.1-.9 0-1.1-.5-1.1-1.1v-3.4h-.7v-.7h.7v-1.5h.9v1.5h.8v.7h-.7z"/><path d="m334.8 72.7c0-1.2.9-1.7 2.2-1.7.4 0 1.9.1 1.9 1.5v3c0 .2.1.3.3.3.1 0 .2 0 .3 0v.6c-.1 0-.3.1-.5.1-.8 0-.9-.4-.9-.8-.3.4-.9.8-1.9.8-1 0-1.6-.6-1.6-1.5 0-.4.1-1.5 1.6-1.6l1.4-.2c.2 0 .5-.1.5-.6 0-.5-.4-.8-1.2-.8-1 0-1.1.6-1.2 1h-.9zm3.2 1c-.1.1-.4.2-1.4.3-.4.1-1.1.2-1.1.8 0 .6.3.9.9.9.8 0 1.6-.5 1.6-1.2v-.8"/><path d="m340.3 76.3v-7.2h.9v2.6c.4-.5.9-.8 1.5-.8 1.4 0 2.2 1.1 2.2 2.6 0 1.2-.5 2.9-2.3 2.9-.9 0-1.3-.5-1.4-.8v.6h-.9zm2.3-4.6c-1.3 0-1.4 1.4-1.4 2.2 0 1.4.9 1.8 1.4 1.8 1 0 1.4-.9 1.4-2 0-.7-.1-2-1.4-2"/><path d="m346.7 76.3h-.9v-7.2h.9v7.2"/><path d="m348 70.1v-1h.9v1h-.9m.9 6.2h-.9v-5.2h.9v5.2"/><path d="m353.2 72.6c0-.3-.1-.9-1.2-.9-.3 0-1 .1-1 .7 0 .4.3.5 1 .7l.9.2c1.1.3 1.5.7 1.5 1.4 0 1.1-.9 1.7-2.1 1.7-2.1 0-2.2-1.2-2.2-1.8h.8c0 .4.2 1.1 1.4 1.1.6 0 1.2-.2 1.2-.8 0-.4-.3-.6-1-.7l-1-.2c-.7-.2-1.2-.5-1.2-1.3 0-1.1 1-1.7 2-1.7 1.9 0 2 1.4 2 1.6h-1.1"/><path d="m359.5 76.3h-.9v-3.4c0-.7-.2-1.2-1-1.2-.7 0-1.5.4-1.5 1.7v2.8h-.9v-7.2h.9v2.6c.2-.3.7-.8 1.5-.8.8 0 1.8.3 1.8 1.8v3.7z"/><path d="m365.2 74.7c0 .2-.3 1-.9 1.4-.2.2-.6.4-1.4.4-1.5 0-2.3-1.1-2.3-2.6 0-1.6.8-2.9 2.5-2.9 1.5 0 2.2 1.2 2.2 3h-3.8c0 1.1.5 1.7 1.5 1.7.8 0 1.3-.6 1.3-1h.9m-.8-1.4c-.1-.8-.4-1.6-1.5-1.6-.8 0-1.4.8-1.4 1.6h2.9"/><path d="m370.7 76.3h-.8v-.7c-.4.7-1 .9-1.5.9-1.8 0-2.3-1.7-2.3-2.9 0-1.5.8-2.6 2.2-2.6 1 0 1.3.6 1.6.9v-.1-2.6h.9v7.1zm-2.4-.6c.6 0 1.4-.4 1.4-1.8 0-.8-.1-2.2-1.4-2.2-1.4 0-1.4 1.3-1.4 2 0 1.1.5 2 1.4 2"/></g><g fill="none" stroke-miterlimit="10"><circle stroke="#cdcccc" stroke-width="1.261" stroke-dasharray="3.1402 3.1402" cx="271.1" cy="186.5" r="82"/><g stroke-linejoin="round" stroke-linecap="round" stroke-width="1.849"><path stroke="#f79332" d="m268.8 98.1l6.9 6.9-6.9 6.9"/><path stroke="#59aee0" d="m273.7 275.7l-6.9-7 6.9-6.9"/><path stroke="#d04537" d="m359.9 183l-6.9 6.9-6.9-6.9"/><path stroke="#68ab47" d="m182.2 184.9l6.9-6.9 6.9 6.9"/></g><circle stroke="#f79332" cx="190.7" cy="23.7" r="8.7"/></g><g fill="#d04537"><path d="m406.5 180c-.1-.5-.5-1.4-1.8-1.4-.9 0-1.6.6-1.6 1.3 0 .5.3 1 1.1 1.1l1.4.3c1.8.3 2.8 1.5 2.8 2.9 0 1.5-1.3 3.1-3.6 3.1-2.6 0-3.8-1.7-4-3.1l1.8-.5c.1 1 .8 1.9 2.2 1.9 1 0 1.6-.5 1.6-1.2 0-.6-.4-1-1.2-1.2l-1.4-.3c-1.6-.3-2.6-1.3-2.6-2.8 0-1.8 1.6-3.1 3.5-3.1 2.4 0 3.3 1.5 3.6 2.6l-1.8.4"/><path d="m414.2 179v8.1h-1.9v-8.1h-3.1v-1.8h8.2v1.8h-3.2"/><path d="m422.9 176.9c2.7 0 5.1 2 5.1 5.2 0 3.2-2.4 5.2-5.1 5.2-2.7 0-5.1-2-5.1-5.2 0-3.2 2.4-5.2 5.1-5.2m0 8.5c1.5 0 3.1-1.1 3.1-3.3s-1.6-3.3-3.1-3.3c-1.5 0-3.1 1.1-3.1 3.3s1.6 3.3 3.1 3.3"/><path d="m432.7 183.2h-1v3.8h-1.9v-9.9h3.9c1.9 0 3.2 1.3 3.2 3.1 0 1.4-.8 2.4-2.1 2.8l2.1 4.1h-2.2l-2-3.9m.5-1.6c1 0 1.6-.6 1.6-1.4 0-.8-.6-1.4-1.6-1.4h-1.6v2.8h1.6"/><path d="m447.6 187.1v-7l-2.9 7h-1.6l-2.9-6.9v6.9h-1.8v-9.9h2.5l3 7.2 2.9-7.2h2.6v9.9h-1.8"/><path d="m451.8 187.1v-9.9h2v9.9h-2"/><path d="m462.5 187.1l-4.5-7v7h-2v-9.9h2.4l4.1 6.6v-6.6h1.9v9.9h-1.9"/><path d="m474.2 187.1l-.1-1.1c-.4.7-1.4 1.3-2.9 1.3-2.7 0-5-2-5-5.2s2.4-5.2 5.1-5.2c2.6 0 4 1.5 4.5 3.1l-1.8.7c-.3-.9-1.1-1.9-2.7-1.9-1.5 0-3.1 1-3.1 3.4 0 2.2 1.5 3.4 3.1 3.4 1.8 0 2.5-1.2 2.7-1.9h-3.1v-1.7h5v5.2h-1.7z"/></g><g fill="#717171"><path d="m406.9 200.2v4.7c0 1.5-.9 2.7-2.9 2.7-1.9 0-2.8-1.2-2.8-2.6v-4.8h1v4.5c0 1.6 1 2 1.8 2 .9 0 1.9-.4 1.9-2v-4.5h1"/><path d="m412.6 207.4h-.9v-3.2c0-.9-.3-1.4-1.1-1.4-.5 0-1.4.3-1.4 1.7v2.8h-.9v-5.2h.8v.7c.2-.3.7-.9 1.6-.9.8 0 1.8.3 1.8 1.8v3.7z"/><path d="m418.2 207.4h-.8v-.7c-.4.7-1 .9-1.5.9-1.8 0-2.3-1.7-2.3-2.9 0-1.5.8-2.6 2.2-2.6 1 0 1.3.6 1.6.9v-.1-2.6h.9v7.1zm-2.3-.6c.6 0 1.4-.4 1.4-1.8 0-.8-.1-2.2-1.4-2.2-1.4 0-1.4 1.3-1.4 2 0 1.1.4 2 1.4 2"/><path d="m423.9 205.7c0 .2-.3 1-.9 1.4-.2.2-.6.4-1.4.4-1.5 0-2.3-1.1-2.3-2.6 0-1.6.8-2.9 2.5-2.9 1.5 0 2.2 1.2 2.2 3h-3.8c0 1.1.5 1.7 1.5 1.7.8 0 1.3-.6 1.3-1h.9m-.9-1.4c-.1-.8-.4-1.6-1.5-1.6-.8 0-1.4.8-1.4 1.6h2.9"/><path d="m426 207.4h-.9v-5.2h.8v.9c.3-.6.8-1 1.5-1 .1 0 .2 0 .2 0v.9h-.3c-.8 0-1.3.6-1.3 1.4v3"/><path d="m431.1 203.6c0-.3-.1-.9-1.2-.9-.3 0-1 .1-1 .7 0 .4.3.5 1 .7l.9.2c1.1.3 1.5.7 1.5 1.4 0 1.1-.9 1.7-2.1 1.7-2.1 0-2.2-1.2-2.2-1.8h.8c0 .4.2 1.1 1.4 1.1.6 0 1.2-.2 1.2-.8 0-.4-.3-.6-1-.7l-1-.2c-.7-.2-1.2-.5-1.2-1.3 0-1.1 1-1.7 2-1.7 1.9 0 2 1.4 2 1.6h-1.1"/><path d="m434.2 202.9v3.4c0 .4.3.4.5.4h.3v.7c-.3 0-.6.1-.7.1-.9 0-1.1-.5-1.1-1.1v-3.4h-.7v-.7h.7v-1.5h.9v1.5h.8v.7h-.7z"/><path d="m435.8 203.7c0-1.2.9-1.7 2.2-1.7.4 0 1.9.1 1.9 1.5v3c0 .2.1.3.3.3.1 0 .2 0 .3 0v.6c-.1 0-.3.1-.5.1-.8 0-.9-.4-.9-.8-.3.4-.9.8-1.9.8-1 0-1.6-.6-1.6-1.5 0-.4.1-1.5 1.6-1.6l1.4-.2c.2 0 .5-.1.5-.6 0-.5-.4-.8-1.2-.8-1 0-1.1.6-1.2 1h-.9zm3.2 1c-.1.1-.4.2-1.4.3-.4.1-1.1.2-1.1.8 0 .6.3.9.9.9.8 0 1.6-.5 1.6-1.2v-.8"/><path d="m445.6 207.4h-.9v-3.2c0-.9-.3-1.4-1.1-1.4-.5 0-1.4.3-1.4 1.7v2.8h-.9v-5.2h.8v.7c.2-.3.7-.9 1.6-.9.8 0 1.8.3 1.8 1.8v3.7z"/><path d="m451.3 207.4h-.8v-.7c-.4.7-1 .9-1.5.9-1.8 0-2.3-1.7-2.3-2.9 0-1.5.8-2.6 2.2-2.6 1 0 1.3.6 1.6.9v-.1-2.6h.9v7.1zm-2.4-.6c.6 0 1.4-.4 1.4-1.8 0-.8-.1-2.2-1.4-2.2-1.4 0-1.4 1.3-1.4 2 0 1.1.5 2 1.4 2"/><path d="m452.5 201.2v-1h.9v1h-.9m.9 6.2h-.9v-5.2h.9v5.2"/><path d="m459 207.4h-.9v-3.2c0-.9-.3-1.4-1.1-1.4-.5 0-1.4.3-1.4 1.7v2.8h-.9v-5.2h.8v.7c.2-.3.7-.9 1.6-.9.8 0 1.8.3 1.8 1.8v3.7z"/><path d="m464.6 206.9c0 .8 0 2.6-2.4 2.6-.6 0-1.8-.2-2-1.6h.9c.2.8 1 .8 1.2.8 1.5 0 1.5-1.2 1.5-1.8v-.2c-.2.4-.7.7-1.4.7-1.8 0-2.3-1.7-2.3-2.9 0-1.5.8-2.6 2.2-2.6 1 0 1.3.6 1.6.9v-.7h.8v4.8zm-2.3-.1c.6 0 1.4-.4 1.4-1.8 0-.8-.1-2.2-1.4-2.2-1.4 0-1.4 1.3-1.4 2 0 1.1.5 2 1.4 2"/><path d="m472.9 207.4h-.9v-3.4c0-.7-.2-1.2-1-1.2-.7 0-1.5.4-1.5 1.7v2.8h-.9v-7.2h.9v2.6c.2-.3.7-.8 1.5-.8.8 0 1.8.3 1.8 1.8v3.7z"/><path d="m476.3 202c1.7 0 2.4 1.4 2.4 2.8 0 1.3-.8 2.8-2.4 2.8s-2.4-1.4-2.4-2.8c0-1.4.7-2.8 2.4-2.8m0 4.7c1.3 0 1.5-1.3 1.5-2 0-.7-.3-2-1.5-2-1.3 0-1.5 1.3-1.5 2 0 .7.2 2 1.5 2"/><path d="m481.5 207.4h-.9l-1.5-5.2h1l1 4.1 1-4.1h1l1 4.1 1.1-4.1h.9l-1.5 5.2h-.9l-1.1-4-1.1 4"/><path d="m490.6 202.9v3.4c0 .4.3.4.5.4h.3v.7c-.3 0-.6.1-.7.1-.9 0-1.1-.5-1.1-1.1v-3.4h-.7v-.7h.7v-1.5h.9v1.5h.8v.7h-.7z"/><path d="m496.6 205.7c0 .2-.3 1-.9 1.4-.2.2-.6.4-1.4.4-1.5 0-2.3-1.1-2.3-2.6 0-1.6.8-2.9 2.5-2.9 1.5 0 2.2 1.2 2.2 3h-3.8c0 1.1.5 1.7 1.5 1.7.8 0 1.3-.6 1.3-1h.9m-.9-1.4c-.1-.8-.4-1.6-1.5-1.6-.8 0-1.4.8-1.4 1.6h2.9"/><path d="m497.7 203.7c0-1.2.9-1.7 2.2-1.7.4 0 1.9.1 1.9 1.5v3c0 .2.1.3.3.3.1 0 .2 0 .3 0v.6c-.1 0-.3.1-.5.1-.8 0-.9-.4-.9-.8-.3.4-.9.8-1.9.8-1 0-1.6-.6-1.6-1.5 0-.4.1-1.5 1.6-1.6l1.4-.2c.2 0 .5-.1.5-.6 0-.5-.4-.8-1.2-.8-1 0-1.1.6-1.2 1h-.9zm3.2 1c-.1.1-.4.2-1.4.3-.4.1-1.1.2-1.1.8 0 .6.3.9.9.9.8 0 1.6-.5 1.6-1.2v-.8"/><path d="m503.3 202.1h.8v.7c.2-.3.6-.9 1.6-.9s1.2.6 1.4.8c.4-.5.8-.8 1.6-.8.6 0 1.6.3 1.6 1.8v3.6h-.9v-3.3c0-.7-.2-1.2-1-1.2-.7 0-1.2.7-1.2 1.4v3.2h-.9v-3.6c0-.4-.2-1-.8-1-.5 0-1.4.3-1.4 1.7v2.8h-.9v-5.2z"/><path d="m518.7 207.4h-.8v-.7c-.4.7-1 .9-1.5.9-1.8 0-2.3-1.7-2.3-2.9 0-1.5.8-2.6 2.2-2.6 1 0 1.3.6 1.6.9v-.1-2.6h.9v7.1zm-2.3-.6c.6 0 1.4-.4 1.4-1.8 0-.8-.1-2.2-1.4-2.2-1.4 0-1.4 1.3-1.4 2 0 1.1.4 2 1.4 2"/><path d="m524.4 205.7c0 .2-.3 1-.9 1.4-.2.2-.6.4-1.4.4-1.5 0-2.3-1.1-2.3-2.6 0-1.6.8-2.9 2.5-2.9 1.5 0 2.2 1.2 2.2 3h-3.8c0 1.1.5 1.7 1.5 1.7.8 0 1.3-.6 1.3-1h.9m-.9-1.4c-.1-.8-.4-1.6-1.5-1.6-.8 0-1.4.8-1.4 1.6h2.9"/><path d="m528.8 203.9c-.1-.7-.5-1.1-1.2-1.1-1.1 0-1.4 1-1.4 2 0 .9.2 2 1.4 2 .6 0 1.1-.4 1.2-1.2h.8c-.1.8-.6 2-2.1 2-1.5 0-2.3-1.1-2.3-2.6 0-1.6.8-2.9 2.5-2.9 1.4 0 1.9 1 2 1.9h-.9z"/><path d="m530.5 201.2v-1h.9v1h-.9m.9 6.2h-.9v-5.2h.9v5.2"/><path d="m535.7 203.6c0-.3-.1-.9-1.2-.9-.3 0-1 .1-1 .7 0 .4.3.5 1 .7l.9.2c1.1.3 1.5.7 1.5 1.4 0 1.1-.9 1.7-2.1 1.7-2.1 0-2.2-1.2-2.2-1.8h.8c0 .4.2 1.1 1.4 1.1.6 0 1.2-.2 1.2-.8 0-.4-.3-.6-1-.7l-1-.2c-.7-.2-1.2-.5-1.2-1.3 0-1.1 1-1.7 2-1.7 1.9 0 2 1.4 2 1.6h-1.1"/><path d="m537.7 201.2v-1h.9v1h-.9m.9 6.2h-.9v-5.2h.9v5.2"/><path d="m542.1 202c1.7 0 2.4 1.4 2.4 2.8 0 1.3-.8 2.8-2.4 2.8s-2.4-1.4-2.4-2.8c-.1-1.4.7-2.8 2.4-2.8m0 4.7c1.3 0 1.5-1.3 1.5-2 0-.7-.3-2-1.5-2-1.3 0-1.5 1.3-1.5 2-.1.7.2 2 1.5 2"/><path d="m549.8 207.4h-.9v-3.2c0-.9-.3-1.4-1.1-1.4-.5 0-1.4.3-1.4 1.7v2.8h-.9v-5.2h.8v.7c.2-.3.7-.9 1.6-.9.8 0 1.8.3 1.8 1.8v3.7z"/><path d="m554 203.6c0-.3-.1-.9-1.2-.9-.3 0-1 .1-1 .7 0 .4.3.5 1 .7l.9.2c1.1.3 1.5.7 1.5 1.4 0 1.1-.9 1.7-2.1 1.7-2.1 0-2.2-1.2-2.2-1.8h.8c0 .4.2 1.1 1.4 1.1.6 0 1.2-.2 1.2-.8 0-.4-.3-.6-1-.7l-1-.2c-.7-.2-1.2-.5-1.2-1.3 0-1.1 1-1.7 2-1.7 1.9 0 2 1.4 2 1.6h-1.1"/><path d="m401.1 217.7c0-1.2.9-1.7 2.2-1.7.4 0 1.9.1 1.9 1.5v3c0 .2.1.3.3.3.1 0 .2 0 .3 0v.6c-.1 0-.3.1-.5.1-.8 0-.9-.4-.9-.8-.3.4-.9.8-1.9.8-1 0-1.6-.6-1.6-1.5 0-.4.1-1.5 1.6-1.6l1.4-.2c.2 0 .5-.1.5-.6 0-.5-.4-.8-1.2-.8-1 0-1.1.6-1.2 1h-.9zm3.2 1c-.1.1-.4.2-1.4.3-.4.1-1.1.2-1.1.8 0 .6.3.9.9.9.8 0 1.6-.5 1.6-1.2v-.8"/><path d="m407.7 221.4h-.9v-5.2h.8v.9c.3-.6.8-1 1.5-1 .1 0 .2 0 .2 0v.9h-.3c-.8 0-1.3.6-1.3 1.4v3"/><path d="m414.2 219.7c0 .2-.3 1-.9 1.4-.2.2-.6.4-1.4.4-1.5 0-2.3-1.1-2.3-2.6 0-1.6.8-2.9 2.5-2.9 1.5 0 2.2 1.2 2.2 3h-3.8c0 1.1.5 1.7 1.5 1.7.8 0 1.3-.6 1.3-1h.9m-.8-1.4c-.1-.8-.4-1.6-1.5-1.6-.8 0-1.4.8-1.4 1.6h2.9"/><path d="m418.1 216.1h.8v.7c.2-.3.6-.9 1.6-.9s1.2.6 1.4.8c.4-.5.8-.8 1.6-.8.6 0 1.6.3 1.6 1.8v3.6h-.9v-3.3c0-.7-.2-1.2-1-1.2-.7 0-1.2.7-1.2 1.4v3.2h-.9v-3.6c0-.4-.2-1-.8-1-.5 0-1.4.3-1.4 1.7v2.8h-.9v-5.2z"/><path d="m426.4 217.7c0-1.2.9-1.7 2.2-1.7.4 0 1.9.1 1.9 1.5v3c0 .2.1.3.3.3.1 0 .2 0 .3 0v.6c-.1 0-.3.1-.5.1-.8 0-.9-.4-.9-.8-.3.4-.9.8-1.9.8-1 0-1.6-.6-1.6-1.5 0-.4.1-1.5 1.6-1.6l1.4-.2c.2 0 .5-.1.5-.6 0-.5-.4-.8-1.2-.8-1 0-1.1.6-1.2 1h-.9zm3.2 1c-.1.1-.4.2-1.4.3-.4.1-1.1.2-1.1.8 0 .6.3.9.9.9.8 0 1.6-.5 1.6-1.2v-.8"/><path d="m436.3 221.4h-.8v-.7c-.4.7-1 .9-1.5.9-1.8 0-2.3-1.7-2.3-2.9 0-1.5.8-2.6 2.2-2.6 1 0 1.3.6 1.6.9v-.1-2.6h.9v7.1zm-2.3-.6c.6 0 1.4-.4 1.4-1.8 0-.8-.1-2.2-1.4-2.2-1.4 0-1.4 1.3-1.4 2 0 1.1.5 2 1.4 2"/><path d="m442 219.7c0 .2-.3 1-.9 1.4-.2.2-.6.4-1.4.4-1.5 0-2.3-1.1-2.3-2.6 0-1.6.8-2.9 2.5-2.9 1.5 0 2.2 1.2 2.2 3h-3.8c0 1.1.5 1.7 1.5 1.7.8 0 1.3-.6 1.3-1h.9m-.8-1.4c-.1-.8-.4-1.6-1.5-1.6-.8 0-1.4.8-1.4 1.6h2.9"/><path d="m443.2 220.3h1v1c0 1.4-.8 1.5-1 1.5v-.5c.4 0 .5-.5.5-1h-.5v-1"/><path d="m448.5 216.1h.8v.7c.2-.3.6-.9 1.6-.9 1.4 0 2.2 1.1 2.2 2.6 0 1.2-.5 2.9-2.3 2.9-.7 0-1.2-.3-1.4-.7v2.6h-.9v-7.2m2.2 4.7c1 0 1.4-.9 1.4-2 0-.7-.1-2-1.4-2-1.3 0-1.4 1.4-1.4 2.2 0 1.4.9 1.8 1.4 1.8"/><path d="m457.5 221.4v-.8c-.4.6-.8.9-1.7.9-.8 0-1.7-.4-1.7-1.6v-3.8h.9v3.5c0 .9.4 1.1 1 1.1 1.1 0 1.4-1 1.4-1.7v-2.9h.9v5.2h-.8z"/><path d="m460.7 221.4h-.9v-5.2h.8v.9c.3-.6.8-1 1.5-1 .1 0 .2 0 .2 0v.9h-.3c-.8 0-1.3.6-1.3 1.4v3"/><path d="m463.2 216.1h.8v.7c.2-.3.6-.9 1.6-.9 1.4 0 2.2 1.1 2.2 2.6 0 1.2-.5 2.9-2.3 2.9-.7 0-1.2-.3-1.4-.7v2.6h-.9v-7.2m2.3 4.7c1 0 1.4-.9 1.4-2 0-.7-.1-2-1.4-2-1.3 0-1.4 1.4-1.4 2.2 0 1.4.8 1.8 1.4 1.8"/><path d="m471 216c1.7 0 2.4 1.4 2.4 2.8 0 1.3-.8 2.8-2.4 2.8s-2.4-1.4-2.4-2.8c0-1.4.7-2.8 2.4-2.8m0 4.7c1.3 0 1.5-1.3 1.5-2 0-.7-.3-2-1.5-2-1.3 0-1.5 1.3-1.5 2 0 .7.2 2 1.5 2"/><path d="m477.4 217.6c0-.3-.1-.9-1.2-.9-.3 0-1 .1-1 .7 0 .4.3.5 1 .7l.9.2c1.1.3 1.5.7 1.5 1.4 0 1.1-.9 1.7-2.1 1.7-2.1 0-2.2-1.2-2.2-1.8h.8c0 .4.2 1.1 1.4 1.1.6 0 1.2-.2 1.2-.8 0-.4-.3-.6-1-.7l-1-.2c-.7-.2-1.2-.5-1.2-1.3 0-1.1 1-1.7 2-1.7 1.9 0 2 1.4 2 1.6h-1.1"/><path d="m483.8 219.7c0 .2-.3 1-.9 1.4-.2.2-.6.4-1.4.4-1.5 0-2.3-1.1-2.3-2.6 0-1.6.8-2.9 2.5-2.9 1.5 0 2.2 1.2 2.2 3h-3.8c0 1.1.5 1.7 1.5 1.7.8 0 1.3-.6 1.3-1h.9m-.8-1.4c-.1-.8-.4-1.6-1.5-1.6-.8 0-1.4.8-1.4 1.6h2.9"/><path d="m487.8 215.2v-1h.9v1h-.9m.8 6.2h-.9v-5.2h.9v5.2"/><path d="m492.9 217.6c0-.3-.1-.9-1.2-.9-.3 0-1 .1-1 .7 0 .4.3.5 1 .7l.9.2c1.1.3 1.5.7 1.5 1.4 0 1.1-.9 1.7-2.1 1.7-2.1 0-2.2-1.2-2.2-1.8h.8c0 .4.2 1.1 1.4 1.1.6 0 1.2-.2 1.2-.8 0-.4-.3-.6-1-.7l-1-.2c-.7-.2-1.2-.5-1.2-1.3 0-1.1 1-1.7 2-1.7 1.9 0 2 1.4 2 1.6h-1.1"/><path d="m501 217.9c-.1-.7-.5-1.1-1.2-1.1-1.1 0-1.4 1-1.4 2 0 .9.2 2 1.4 2 .6 0 1.1-.4 1.2-1.2h.8c-.1.8-.6 2-2.1 2-1.5 0-2.3-1.1-2.3-2.6 0-1.6.8-2.9 2.5-2.9 1.4 0 1.9 1 2 1.9h-.9z"/><path d="m503.6 221.4h-.9v-7.2h.9v7.2"/><path d="m509.4 219.7c0 .2-.3 1-.9 1.4-.2.2-.6.4-1.4.4-1.5 0-2.3-1.1-2.3-2.6 0-1.6.8-2.9 2.5-2.9 1.5 0 2.2 1.2 2.2 3h-3.8c0 1.1.5 1.7 1.5 1.7.8 0 1.3-.6 1.3-1h.9m-.8-1.4c-.1-.8-.4-1.6-1.5-1.6-.8 0-1.4.8-1.4 1.6h2.9"/><path d="m510.5 217.7c0-1.2.9-1.7 2.2-1.7.4 0 1.9.1 1.9 1.5v3c0 .2.1.3.3.3.1 0 .2 0 .3 0v.6c-.1 0-.3.1-.5.1-.8 0-.9-.4-.9-.8-.3.4-.9.8-1.9.8-1 0-1.6-.6-1.6-1.5 0-.4.1-1.5 1.6-1.6l1.4-.2c.2 0 .5-.1.5-.6 0-.5-.4-.8-1.2-.8-1 0-1.1.6-1.2 1h-.9zm3.2 1c-.1.1-.4.2-1.4.3-.4.1-1.1.2-1.1.8 0 .6.3.9.9.9.8 0 1.6-.5 1.6-1.2v-.8"/><path d="m517.1 221.4h-.9v-5.2h.8v.9c.3-.6.8-1 1.5-1 .1 0 .2 0 .2 0v.9h-.3c-.8 0-1.3.6-1.3 1.4v3"/><path d="m522.1 221.4v-7.2h.9v2.6c.4-.5.9-.8 1.5-.8 1.4 0 2.2 1.1 2.2 2.6 0 1.2-.5 2.9-2.3 2.9-.9 0-1.3-.5-1.4-.8v.6h-.9zm2.3-4.6c-1.3 0-1.4 1.4-1.4 2.2 0 1.4.9 1.8 1.4 1.8 1 0 1.4-.9 1.4-2 0-.7-.1-2-1.4-2"/><path d="m531 221.4v-.8c-.4.6-.8.9-1.7.9-.8 0-1.7-.4-1.7-1.6v-3.8h.9v3.5c0 .9.4 1.1 1 1.1 1.1 0 1.4-1 1.4-1.7v-2.9h.9v5.2h-.8z"/><path d="m534.2 216.9v3.4c0 .4.3.4.5.4h.3v.7c-.3 0-.6.1-.7.1-.9 0-1.1-.5-1.1-1.1v-3.4h-.7v-.7h.7v-1.5h.9v1.5h.8v.7h-.7z"/><path d="m539.8 216.9v3.4c0 .4.3.4.5.4h.3v.7c-.3 0-.6.1-.7.1-.9 0-1.1-.5-1.1-1.1v-3.4h-.7v-.7h.7v-1.5h.9v1.5h.8v.7h-.7z"/><path d="m545.7 219.7c0 .2-.3 1-.9 1.4-.2.2-.6.4-1.4.4-1.5 0-2.3-1.1-2.3-2.6 0-1.6.8-2.9 2.5-2.9 1.5 0 2.2 1.2 2.2 3h-3.8c0 1.1.5 1.7 1.5 1.7.8 0 1.3-.6 1.3-1h.9m-.8-1.4c-.1-.8-.4-1.6-1.5-1.6-.8 0-1.4.8-1.4 1.6h2.9"/><path d="m546.8 217.7c0-1.2.9-1.7 2.2-1.7.4 0 1.9.1 1.9 1.5v3c0 .2.1.3.3.3.1 0 .2 0 .3 0v.6c-.1 0-.3.1-.5.1-.8 0-.9-.4-.9-.8-.3.4-.9.8-1.9.8-1 0-1.6-.6-1.6-1.5 0-.4.1-1.5 1.6-1.6l1.4-.2c.2 0 .5-.1.5-.6 0-.5-.4-.8-1.2-.8-1 0-1.1.6-1.2 1h-.9zm3.2 1c-.1.1-.4.2-1.4.3-.4.1-1.1.2-1.1.8 0 .6.3.9.9.9.8 0 1.6-.5 1.6-1.2v-.8"/><path d="m552.4 216.1h.8v.7c.2-.3.6-.9 1.6-.9s1.2.6 1.4.8c.4-.5.8-.8 1.6-.8.6 0 1.6.3 1.6 1.8v3.6h-.9v-3.3c0-.7-.2-1.2-1-1.2-.7 0-1.2.7-1.2 1.4v3.2h-.9v-3.6c0-.4-.2-1-.8-1-.5 0-1.4.3-1.4 1.7v2.8h-.9v-5.2z"/><path d="m402.1 235.4h-.9v-5.2h.8v.9c.3-.6.8-1 1.5-1 .1 0 .2 0 .2 0v.9h-.3c-.8 0-1.3.6-1.3 1.4v3"/><path d="m408.7 233.7c0 .2-.3 1-.9 1.4-.2.2-.6.4-1.4.4-1.5 0-2.3-1.1-2.3-2.6 0-1.6.8-2.9 2.5-2.9 1.5 0 2.2 1.2 2.2 3h-3.8c0 1.1.5 1.7 1.5 1.7.8 0 1.3-.6 1.3-1h.9m-.9-1.4c-.1-.8-.4-1.6-1.5-1.6-.8 0-1.4.8-1.4 1.6h2.9"/><path d="m410.7 235.4h-.9v-7.2h.9v7.2"/><path d="m412 231.7c0-1.2.9-1.7 2.2-1.7.4 0 1.9.1 1.9 1.5v3c0 .2.1.3.3.3.1 0 .2 0 .3 0v.6c-.1 0-.3.1-.5.1-.8 0-.9-.4-.9-.8-.3.4-.9.8-1.9.8-1 0-1.6-.6-1.6-1.5 0-.4.1-1.5 1.6-1.6l1.4-.2c.2 0 .5-.1.5-.6 0-.5-.4-.8-1.2-.8-1 0-1.1.6-1.2 1h-.9zm3.2 1c-.1.1-.4.2-1.4.3-.4.1-1.1.2-1.1.8 0 .6.3.9.9.9.8 0 1.6-.5 1.6-1.2v-.8"/><path d="m418.6 230.9v3.4c0 .4.3.4.5.4h.3v.7c-.3 0-.6.1-.7.1-.9 0-1.1-.5-1.1-1.1v-3.4h-.7v-.7h.7v-1.5h.9v1.5h.8v.7h-.7z"/><path d="m420.4 229.2v-1h.9v1h-.9m.8 6.2h-.9v-5.2h.9v5.2"/><path d="m424.7 230c1.7 0 2.4 1.4 2.4 2.8 0 1.3-.8 2.8-2.4 2.8s-2.4-1.4-2.4-2.8c0-1.4.7-2.8 2.4-2.8m0 4.7c1.3 0 1.5-1.3 1.5-2 0-.7-.3-2-1.5-2-1.3 0-1.5 1.3-1.5 2 0 .7.2 2 1.5 2"/><path d="m432.4 235.4h-.9v-3.2c0-.9-.3-1.4-1.1-1.4-.5 0-1.4.3-1.4 1.7v2.8h-.9v-5.2h.8v.7c.2-.3.7-.9 1.6-.9.8 0 1.8.3 1.8 1.8v3.7z"/><path d="m436.6 231.6c0-.3-.1-.9-1.2-.9-.3 0-1 .1-1 .7 0 .4.3.5 1 .7l.9.2c1.1.3 1.5.7 1.5 1.4 0 1.1-.9 1.7-2.1 1.7-2.1 0-2.2-1.2-2.2-1.8h.8c0 .4.2 1.1 1.4 1.1.6 0 1.2-.2 1.2-.8 0-.4-.3-.6-1-.7l-1-.2c-.7-.2-1.2-.5-1.2-1.3 0-1.1 1-1.7 2-1.7 1.9 0 2 1.4 2 1.6h-1.1"/><path d="m442.9 235.4h-.9v-3.4c0-.7-.2-1.2-1-1.2-.7 0-1.5.4-1.5 1.7v2.8h-.9v-7.2h.9v2.6c.2-.3.7-.8 1.5-.8.8 0 1.8.3 1.8 1.8v3.7z"/><path d="m444.3 229.2v-1h.9v1h-.9m.8 6.2h-.9v-5.2h.9v5.2"/><path d="m446.4 230.1h.8v.7c.2-.3.6-.9 1.6-.9 1.4 0 2.2 1.1 2.2 2.6 0 1.2-.5 2.9-2.3 2.9-.7 0-1.2-.3-1.4-.7v2.6h-.9v-7.2m2.3 4.7c1 0 1.4-.9 1.4-2 0-.7-.1-2-1.4-2-1.3 0-1.4 1.4-1.4 2.2-.1 1.4.8 1.8 1.4 1.8"/><path d="m455 231.6c0-.3-.1-.9-1.2-.9-.3 0-1 .1-1 .7 0 .4.3.5 1 .7l.9.2c1.1.3 1.5.7 1.5 1.4 0 1.1-.9 1.7-2.1 1.7-2.1 0-2.2-1.2-2.2-1.8h.8c0 .4.2 1.1 1.4 1.1.6 0 1.2-.2 1.2-.8 0-.4-.3-.6-1-.7l-1-.2c-.7-.2-1.2-.5-1.2-1.3 0-1.1 1-1.7 2-1.7 1.9 0 2 1.4 2 1.6h-1.1"/><path d="m459.8 231.7c0-1.2.9-1.7 2.2-1.7.4 0 1.9.1 1.9 1.5v3c0 .2.1.3.3.3.1 0 .2 0 .3 0v.6c-.1 0-.3.1-.5.1-.8 0-.9-.4-.9-.8-.3.4-.9.8-1.9.8-1 0-1.6-.6-1.6-1.5 0-.4.1-1.5 1.6-1.6l1.4-.2c.2 0 .5-.1.5-.6 0-.5-.4-.8-1.2-.8-1 0-1.1.6-1.2 1h-.9zm3.2 1c-.1.1-.4.2-1.4.3-.4.1-1.1.2-1.1.8 0 .6.3.9.9.9.8 0 1.6-.5 1.6-1.2v-.8"/><path d="m466.4 235.4h-.9v-5.2h.8v.9c.3-.6.8-1 1.5-1 .1 0 .2 0 .2 0v.9h-.3c-.8 0-1.3.6-1.3 1.4v3"/><path d="m472.9 233.7c0 .2-.3 1-.9 1.4-.2.2-.6.4-1.4.4-1.5 0-2.3-1.1-2.3-2.6 0-1.6.8-2.9 2.5-2.9 1.5 0 2.2 1.2 2.2 3h-3.8c0 1.1.5 1.7 1.5 1.7.8 0 1.3-.6 1.3-1h.9m-.8-1.4c-.1-.8-.4-1.6-1.5-1.6-.8 0-1.4.8-1.4 1.6h2.9"/><path d="m476.8 235.4v-7.2h.9v2.6c.4-.5.9-.8 1.5-.8 1.4 0 2.2 1.1 2.2 2.6 0 1.2-.5 2.9-2.3 2.9-.9 0-1.3-.5-1.4-.8v.6h-.9zm2.2-4.6c-1.3 0-1.4 1.4-1.4 2.2 0 1.4.9 1.8 1.4 1.8 1 0 1.4-.9 1.4-2 0-.7 0-2-1.4-2"/><path d="m483.1 235.4h-.9v-7.2h.9v7.2"/><path d="m487.8 235.4v-.8c-.4.6-.8.9-1.7.9-.8 0-1.7-.4-1.7-1.6v-3.8h.9v3.5c0 .9.4 1.1 1 1.1 1.1 0 1.4-1 1.4-1.7v-2.9h.9v5.2h-.8z"/><path d="m491 235.4h-.9v-5.2h.8v.9c.3-.6.8-1 1.5-1 .1 0 .2 0 .2 0v.9h-.3c-.8 0-1.3.6-1.3 1.4v3"/><path d="m494.3 235.4h-.9v-5.2h.8v.9c.3-.6.8-1 1.5-1 .1 0 .2 0 .2 0v.9h-.3c-.8 0-1.3.6-1.3 1.4v3"/><path d="m500.2 230.1h1c-.6 1.7-1.2 3.4-1.9 5.1-.8 2.1-.9 2.2-2 2.2-.1 0-.2 0-.4-.1v-.8c.1 0 .3.1.5.1.5 0 .5-.1.9-1.2l-1.9-5.4h1l1.4 4.3 1.4-4.2"/></g><path fill="#d04537" d="m379.7 181.6c0-.1 0-.2 0-.3 0-1.3 1-2.5 2.7-2.5 1.7 0 2.6 1.1 2.6 2.4 0 1-.6 1.8-1.5 2.4l-1.5 1c-.4.3-.8.6-.9 1.1h4v1.1h-5.4c0-1.3.5-2.2 1.8-3.1l1.3-.8c.7-.5 1.1-1 1.1-1.6 0-.7-.5-1.4-1.5-1.4-1 0-1.5.7-1.5 1.6 0 .1 0 .2 0 .3l-1.2-.2"/><circle fill="none" stroke="#d04537" stroke-miterlimit="10" cx="382.3" cy="182.7" r="8.7"/><g fill="#59aee0"><path d="m216.3 306.9l-4.5-7v7h-1.9v-9.9h2.4l4.1 6.6v-6.6h1.9v9.9h-2"/><path d="m225.1 296.8c2.7 0 5.1 2 5.1 5.2 0 3.2-2.4 5.2-5.1 5.2-2.7 0-5.1-2-5.1-5.2 0-3.2 2.4-5.2 5.1-5.2m0 8.5c1.5 0 3.1-1.1 3.1-3.3 0-2.2-1.6-3.3-3.1-3.3-1.5 0-3.1 1.1-3.1 3.3 0 2.2 1.5 3.3 3.1 3.3"/><path d="m234.8 303.1h-1v3.8h-1.9v-9.9h3.9c1.9 0 3.2 1.3 3.2 3.1 0 1.4-.8 2.4-2.1 2.8l2.1 4.1h-2.2l-2-3.9m.6-1.7c1 0 1.6-.6 1.6-1.4 0-.8-.6-1.4-1.6-1.4h-1.6v2.8h1.6"/><path d="m249.8 306.9v-7l-2.9 7h-1.6l-2.9-6.9v6.9h-1.8v-9.9h2.5l3 7.2 2.9-7.2h2.6v9.9h-1.8"/><path d="m254 306.9v-9.9h2v9.9h-2"/><path d="m264.6 306.9l-4.5-7v7h-1.9v-9.9h2.4l4.1 6.6v-6.6h1.9v9.9h-2"/><path d="m276.3 306.9l-.1-1.1c-.4.7-1.4 1.3-2.9 1.3-2.7 0-5-2-5-5.2 0-3.2 2.4-5.2 5.1-5.2 2.6 0 4 1.5 4.5 3.1l-1.8.7c-.3-.9-1.1-1.9-2.7-1.9-1.5 0-3.1 1-3.1 3.4 0 2.2 1.5 3.4 3.1 3.4 1.8 0 2.5-1.2 2.7-1.9h-3.1v-1.7h5v5.2h-1.7z"/></g><g fill="#717171"><path d="m210.5 327.2h-1v-7.2h3.3c1.2 0 2.4.4 2.4 1.9 0 1.1-.5 1.4-1 1.7.4.2.8.3.9 1.3l.1 1.3c0 .4.1.5.4.7v.2h-1.2c-.1-.4-.2-1.5-.2-1.8 0-.6-.1-1.3-1.3-1.3h-2.3v3.2zm0-3.9h2.2c.7 0 1.5-.2 1.5-1.2 0-1.1-.8-1.2-1.3-1.2h-2.4v2.4"/><path d="m220.8 325.6c0 .2-.3 1-.9 1.4-.2.2-.6.4-1.4.4-1.5 0-2.3-1.1-2.3-2.6 0-1.6.8-2.9 2.5-2.9 1.5 0 2.2 1.2 2.2 3h-3.8c0 1.1.5 1.7 1.5 1.7.8 0 1.3-.6 1.3-1h.9m-.8-1.4c-.1-.8-.4-1.6-1.5-1.6-.8 0-1.4.8-1.4 1.6h2.9"/><path d="m222.8 327.2h-.9v-7.2h.9v7.2"/><path d="m224.1 323.6c0-1.2.9-1.7 2.2-1.7.4 0 1.9.1 1.9 1.5v3c0 .2.1.3.3.3.1 0 .2 0 .3 0v.6c-.1 0-.3.1-.5.1-.8 0-.9-.4-.9-.8-.3.4-.9.8-1.9.8-1 0-1.6-.6-1.6-1.5 0-.4.1-1.5 1.6-1.6l1.4-.2c.2 0 .5-.1.5-.6 0-.5-.4-.8-1.2-.8-1 0-1.1.6-1.2 1h-.9zm3.2 1c-.1.1-.4.2-1.4.3-.4.1-1.1.2-1.1.8 0 .6.3.9.9.9.8 0 1.6-.5 1.6-1.2v-.8"/><path d="m230.8 322.7v3.4c0 .4.3.4.5.4h.3v.7c-.3 0-.6.1-.7.1-.9 0-1.1-.5-1.1-1.1v-3.4h-.7v-.8h.7v-1.5h.9v1.5h.8v.7h-.7"/><path d="m232.5 321.1v-1h.9v1h-.9m.9 6.1h-.9v-5.2h.9v5.2"/><path d="m236.8 321.9c1.7 0 2.4 1.4 2.4 2.8 0 1.3-.8 2.8-2.4 2.8s-2.4-1.4-2.4-2.8c0-1.4.8-2.8 2.4-2.8m0 4.7c1.3 0 1.5-1.3 1.5-2 0-.7-.3-2-1.5-2-1.3 0-1.5 1.3-1.5 2 0 .7.3 2 1.5 2"/><path d="m244.5 327.2h-.9v-3.2c0-.9-.3-1.4-1.1-1.4-.5 0-1.4.3-1.4 1.7v2.8h-.9v-5.1h.8v.7c.2-.3.7-.9 1.6-.9.8 0 1.8.3 1.8 1.8v3.6z"/><path d="m248.8 323.5c0-.3-.1-.9-1.2-.9-.3 0-1 .1-1 .7 0 .4.3.5 1 .7l.9.2c1.1.3 1.5.7 1.5 1.4 0 1.1-.9 1.7-2.1 1.7-2.1 0-2.2-1.2-2.2-1.8h.8c0 .4.2 1.1 1.4 1.1.6 0 1.2-.2 1.2-.8 0-.4-.3-.6-1-.7l-1-.2c-.7-.2-1.2-.5-1.2-1.3 0-1.1 1-1.7 2-1.7 1.9 0 2 1.4 2 1.6h-1.1"/><path d="m255.1 327.2h-.9v-3.4c0-.7-.2-1.2-1-1.2-.7 0-1.5.4-1.5 1.7v2.8h-.9v-7.2h.9v2.6c.2-.3.7-.8 1.5-.8.8 0 1.8.3 1.8 1.8v3.7z"/><path d="m256.4 321.1v-1h.9v1h-.9m.9 6.1h-.9v-5.2h.9v5.2"/><path d="m258.5 322h.8v.7c.2-.3.6-.9 1.6-.9 1.4 0 2.2 1.1 2.2 2.6 0 1.2-.5 2.9-2.3 2.9-.7 0-1.2-.3-1.4-.7v2.6h-.9v-7.2m2.3 4.6c1 0 1.4-.9 1.4-2 0-.7-.1-2-1.4-2-1.3 0-1.4 1.4-1.4 2.2 0 1.5.8 1.8 1.4 1.8"/><path d="m267.1 323.5c0-.3-.1-.9-1.2-.9-.3 0-1 .1-1 .7 0 .4.3.5 1 .7l.9.2c1.1.3 1.5.7 1.5 1.4 0 1.1-.9 1.7-2.1 1.7-2.1 0-2.2-1.2-2.2-1.8h.8c0 .4.2 1.1 1.4 1.1.6 0 1.2-.2 1.2-.8 0-.4-.3-.6-1-.7l-1-.2c-.7-.2-1.2-.5-1.2-1.3 0-1.1 1-1.7 2-1.7 1.9 0 2 1.4 2 1.6h-1.1"/><path d="m271.9 323.6c0-1.2.9-1.7 2.2-1.7.4 0 1.9.1 1.9 1.5v3c0 .2.1.3.3.3.1 0 .2 0 .3 0v.6c-.1 0-.3.1-.5.1-.8 0-.9-.4-.9-.8-.3.4-.9.8-1.9.8-1 0-1.6-.6-1.6-1.5 0-.4.1-1.5 1.6-1.6l1.4-.2c.2 0 .5-.1.5-.6 0-.5-.4-.8-1.2-.8-1 0-1.1.6-1.2 1h-.9zm3.2 1c-.1.1-.4.2-1.4.3-.4.1-1.1.2-1.1.8 0 .6.3.9.9.9.8 0 1.6-.5 1.6-1.2v-.8"/><path d="m278.5 327.2h-.9v-5.2h.8v.9c.3-.6.8-1 1.5-1 .1 0 .2 0 .2 0v.9h-.3c-.8 0-1.3.6-1.3 1.4v3"/><path d="m285.1 325.6c0 .2-.3 1-.9 1.4-.2.2-.6.4-1.4.4-1.5 0-2.3-1.1-2.3-2.6 0-1.6.8-2.9 2.5-2.9 1.5 0 2.2 1.2 2.2 3h-3.8c0 1.1.5 1.7 1.5 1.7.8 0 1.3-.6 1.3-1h.9m-.9-1.4c-.1-.8-.4-1.6-1.5-1.6-.8 0-1.4.8-1.4 1.6h2.9"/><path d="m290.9 327.2h-.9l-1.5-5.2h1l1 4.1 1-4.1h1l1 4.1 1.1-4.1h.9l-1.5 5.2h-1l-1.1-4-1 4"/><path d="m300.5 325.6c0 .2-.3 1-.9 1.4-.2.2-.6.4-1.4.4-1.5 0-2.3-1.1-2.3-2.6 0-1.6.8-2.9 2.5-2.9 1.5 0 2.2 1.2 2.2 3h-3.8c0 1.1.5 1.7 1.5 1.7.8 0 1.3-.6 1.3-1h.9m-.8-1.4c-.1-.8-.4-1.6-1.5-1.6-.8 0-1.4.8-1.4 1.6h2.9"/><path d="m302.5 327.2h-.9v-7.2h.9v7.2"/><path d="m304.8 327.2h-.9v-7.2h.9v7.2"/><path d="m308.3 324.9h-2.4v-.9h2.4v.9"/><path d="m312.8 327.2v-.8c-.4.6-.8.9-1.7.9-.8 0-1.7-.4-1.7-1.6v-3.7h.9v3.5c0 .9.4 1.1 1 1.1 1.1 0 1.4-1 1.4-1.7v-2.9h.9v5.2h-.8"/><path d="m319.2 327.2h-.9v-3.2c0-.9-.3-1.4-1.1-1.4-.5 0-1.4.3-1.4 1.7v2.8h-.8v-5.1h.8v.7c.2-.3.7-.9 1.6-.9.8 0 1.8.3 1.8 1.8v3.6"/><path d="m324.9 327.2h-.9v-.7c-.4.7-1 .9-1.5.9-1.8 0-2.3-1.7-2.3-2.9 0-1.5.8-2.6 2.2-2.6 1 0 1.3.6 1.6.9v-.1-2.6h.9v7.1m-2.3-.6c.6 0 1.4-.4 1.4-1.8 0-.8-.1-2.2-1.4-2.2-1.4 0-1.4 1.3-1.4 2-.1 1.2.4 2 1.4 2"/><path d="m330.5 325.6c0 .2-.3 1-.9 1.4-.2.2-.6.4-1.4.4-1.5 0-2.3-1.1-2.3-2.6 0-1.6.8-2.9 2.5-2.9 1.5 0 2.2 1.2 2.2 3h-3.8c0 1.1.5 1.7 1.5 1.7.8 0 1.3-.6 1.3-1h.9m-.8-1.4c-.1-.8-.4-1.6-1.5-1.6-.8 0-1.4.8-1.4 1.6h2.9"/><path d="m332.7 327.2h-.9v-5.2h.8v.9c.3-.6.8-1 1.5-1 .1 0 .2 0 .2 0v.9h-.3c-.8 0-1.3.6-1.3 1.4v3"/><path d="m337.8 323.5c0-.3-.1-.9-1.2-.9-.3 0-1 .1-1 .7 0 .4.3.5 1 .7l.9.2c1.1.3 1.5.7 1.5 1.4 0 1.1-.9 1.7-2.1 1.7-2.1 0-2.2-1.2-2.2-1.8h.8c0 .4.2 1.1 1.4 1.1.6 0 1.2-.2 1.2-.8 0-.4-.3-.6-1-.7l-1-.2c-.7-.2-1.2-.5-1.2-1.3 0-1.1 1-1.7 2-1.7 1.9 0 2 1.4 2 1.6h-1.1"/><path d="m340.9 322.7v3.4c0 .4.3.4.5.4h.3v.7c-.3 0-.6.1-.7.1-.9 0-1.1-.5-1.1-1.1v-3.4h-.7v-.8h.7v-1.5h.9v1.5h.8v.7h-.7"/><path d="m344.5 321.9c1.7 0 2.4 1.4 2.4 2.8 0 1.3-.8 2.8-2.4 2.8s-2.4-1.4-2.4-2.8c0-1.4.7-2.8 2.4-2.8m0 4.7c1.3 0 1.5-1.3 1.5-2 0-.7-.3-2-1.5-2-1.3 0-1.5 1.3-1.5 2 0 .7.2 2 1.5 2"/><path d="m350.1 321.9c1.7 0 2.4 1.4 2.4 2.8 0 1.3-.8 2.8-2.4 2.8s-2.4-1.4-2.4-2.8c-.1-1.4.7-2.8 2.4-2.8m0 4.7c1.3 0 1.5-1.3 1.5-2 0-.7-.3-2-1.5-2-1.3 0-1.5 1.3-1.5 2-.1.7.2 2 1.5 2"/><path d="m357.8 327.2h-.8v-.7c-.4.7-1 .9-1.5.9-1.8 0-2.3-1.7-2.3-2.9 0-1.5.8-2.6 2.2-2.6 1 0 1.3.6 1.6.9v-.1-2.6h.9v7.1zm-2.3-.6c.6 0 1.4-.4 1.4-1.8 0-.8-.1-2.2-1.4-2.2-1.4 0-1.4 1.3-1.4 2 0 1.2.4 2 1.4 2"/><path d="m361.8 321.1v-1h.9v1h-.9m.9 6.1h-.9v-5.2h.9v5.2"/><path d="m368.3 327.2h-.9v-3.2c0-.9-.3-1.4-1.1-1.4-.5 0-1.4.3-1.4 1.7v2.8h-.9v-5.1h.8v.7c.2-.3.7-.9 1.6-.9.8 0 1.8.3 1.8 1.8v3.6z"/><path d="m210.4 336.7v3.4c0 .4.3.4.5.4h.3v.7c-.3 0-.6.1-.7.1-.9 0-1.1-.5-1.1-1.1v-3.4h-.7v-.8h.7v-1.5h.9v1.5h.8v.7h-.7"/><path d="m216.4 341.2h-.9v-3.4c0-.7-.2-1.2-1-1.2-.7 0-1.5.4-1.5 1.7v2.8h-.9v-7.2h.9v2.6c.2-.3.7-.8 1.5-.8.8 0 1.8.3 1.8 1.8v3.7z"/><path d="m222.1 339.6c0 .2-.3 1-.9 1.4-.2.2-.6.4-1.4.4-1.5 0-2.3-1.1-2.3-2.6 0-1.6.8-2.9 2.5-2.9 1.5 0 2.2 1.2 2.2 3h-3.8c0 1.1.5 1.7 1.5 1.7.8 0 1.3-.6 1.3-1h.9m-.8-1.4c-.1-.8-.4-1.6-1.5-1.6-.8 0-1.4.8-1.4 1.6h2.9"/><path d="m227.1 336.7v3.4c0 .4.3.4.5.4h.3v.7c-.3 0-.6.1-.7.1-.9 0-1.1-.5-1.1-1.1v-3.4h-.7v-.8h.7v-1.5h.9v1.5h.8v.7h-.7"/><path d="m233 339.6c0 .2-.3 1-.9 1.4-.2.2-.6.4-1.4.4-1.5 0-2.3-1.1-2.3-2.6 0-1.6.8-2.9 2.5-2.9 1.5 0 2.2 1.2 2.2 3h-3.8c0 1.1.5 1.7 1.5 1.7.8 0 1.3-.6 1.3-1h.9m-.8-1.4c-.1-.8-.4-1.6-1.5-1.6-.8 0-1.4.8-1.4 1.6h2.9"/><path d="m234.1 337.6c0-1.2.9-1.7 2.2-1.7.4 0 1.9.1 1.9 1.5v3c0 .2.1.3.3.3.1 0 .2 0 .3 0v.6c-.1 0-.3.1-.5.1-.8 0-.9-.4-.9-.8-.3.4-.9.8-1.9.8-1 0-1.6-.6-1.6-1.5 0-.4.1-1.5 1.6-1.6l1.4-.2c.2 0 .5-.1.5-.6 0-.5-.4-.8-1.2-.8-1 0-1.1.6-1.2 1h-.9zm3.2 1c-.1.1-.4.2-1.4.3-.4.1-1.1.2-1.1.8 0 .6.3.9.9.9.8 0 1.6-.5 1.6-1.2v-.8"/><path d="m239.7 336h.8v.7c.2-.3.6-.9 1.6-.9s1.2.6 1.4.8c.4-.5.8-.8 1.6-.8.6 0 1.6.3 1.6 1.8v3.6h-.9v-3.4c0-.7-.2-1.2-1-1.2-.7 0-1.2.7-1.2 1.4v3.2h-.9v-3.6c0-.4-.2-1-.8-1-.5 0-1.4.3-1.4 1.7v2.8h-.9v-5.1z"/><path d="m248.3 340.2h1v1c0 1.4-.8 1.5-1 1.5v-.5c.4 0 .5-.5.5-1h-.5v-1"/><path d="m256.9 337.8c-.1-.7-.5-1.1-1.2-1.1-1.1 0-1.4 1-1.4 2 0 .9.2 2 1.4 2 .6 0 1.1-.4 1.2-1.2h.8c-.1.8-.6 2-2.1 2-1.5 0-2.3-1.1-2.3-2.6 0-1.6.8-2.9 2.5-2.9 1.4 0 1.9 1 2 1.9h-.9z"/><path d="m260.7 335.9c1.7 0 2.4 1.4 2.4 2.8 0 1.3-.8 2.8-2.4 2.8s-2.4-1.4-2.4-2.8c0-1.4.8-2.8 2.4-2.8m0 4.7c1.3 0 1.5-1.3 1.5-2 0-.7-.3-2-1.5-2-1.3 0-1.5 1.3-1.5 2 0 .7.3 2 1.5 2"/><path d="m264.2 336h.8v.7c.2-.3.6-.9 1.6-.9s1.2.6 1.4.8c.4-.5.8-.8 1.6-.8.6 0 1.6.3 1.6 1.8v3.6h-.9v-3.4c0-.7-.2-1.2-1-1.2-.7 0-1.2.7-1.2 1.4v3.2h-.9v-3.6c0-.4-.2-1-.8-1-.5 0-1.4.3-1.4 1.7v2.8h-.9v-5.1z"/><path d="m272.5 336h.8v.7c.2-.3.6-.9 1.6-.9s1.2.6 1.4.8c.4-.5.8-.8 1.6-.8.6 0 1.6.3 1.6 1.8v3.6h-.9v-3.4c0-.7-.2-1.2-1-1.2-.7 0-1.2.7-1.2 1.4v3.2h-.9v-3.6c0-.4-.2-1-.8-1-.5 0-1.4.3-1.4 1.7v2.8h-.9v-5.1z"/><path d="m280.9 335.1v-1h.9v1h-.9m.8 6.1h-.9v-5.2h.9v5.2"/><path d="m284.1 336.7v3.4c0 .4.3.4.5.4h.3v.7c-.3 0-.6.1-.7.1-.9 0-1.1-.5-1.1-1.1v-3.4h-.7v-.8h.7v-1.5h.9v1.5h.8v.7h-.7"/><path d="m285.8 336h.8v.7c.2-.3.6-.9 1.6-.9s1.2.6 1.4.8c.4-.5.8-.8 1.6-.8.6 0 1.6.3 1.6 1.8v3.6h-.8v-3.4c0-.7-.2-1.2-1-1.2-.7 0-1.2.7-1.2 1.4v3.2h-.9v-3.6c0-.4-.2-1-.8-1-.5 0-1.4.3-1.4 1.7v2.8h-.9v-5.1"/><path d="m298.6 339.6c0 .2-.3 1-.9 1.4-.2.2-.6.4-1.4.4-1.5 0-2.3-1.1-2.3-2.6 0-1.6.8-2.9 2.5-2.9 1.5 0 2.2 1.2 2.2 3h-3.8c0 1.1.5 1.7 1.5 1.7.8 0 1.3-.6 1.3-1h.9m-.8-1.4c-.1-.8-.4-1.6-1.5-1.6-.8 0-1.4.8-1.4 1.6h2.9"/><path d="m304 341.2h-.9v-3.2c0-.9-.3-1.4-1.1-1.4-.5 0-1.4.3-1.4 1.7v2.8h-.9v-5.1h.8v.7c.2-.3.7-.9 1.6-.9.8 0 1.8.3 1.8 1.8v3.6z"/><path d="m306.4 336.7v3.4c0 .4.3.4.5.4h.3v.7c-.3 0-.6.1-.7.1-.9 0-1.1-.5-1.1-1.1v-3.4h-.7v-.8h.7v-1.5h.9v1.5h.8v.7h-.7"/><path d="m311.9 336.7v3.4c0 .4.3.4.5.4h.3v.7c-.3 0-.6.1-.7.1-.9 0-1.1-.5-1.1-1.1v-3.4h-.7v-.8h.7v-1.5h.9v1.5h.8v.7h-.7"/><path d="m315.6 335.9c1.7 0 2.4 1.4 2.4 2.8 0 1.3-.8 2.8-2.4 2.8s-2.4-1.4-2.4-2.8c-.1-1.4.7-2.8 2.4-2.8m0 4.7c1.3 0 1.5-1.3 1.5-2 0-.7-.3-2-1.5-2-1.3 0-1.5 1.3-1.5 2-.1.7.2 2 1.5 2"/><path d="m322.8 336.7v3.4c0 .4.3.4.5.4h.3v.7c-.3 0-.6.1-.7.1-.9 0-1.1-.5-1.1-1.1v-3.4h-.7v-.8h.7v-1.5h.9v1.5h.8v.7h-.7"/><path d="m328.8 339.6c0 .2-.3 1-.9 1.4-.2.2-.6.4-1.4.4-1.5 0-2.3-1.1-2.3-2.6 0-1.6.8-2.9 2.5-2.9 1.5 0 2.2 1.2 2.2 3h-3.9c0 1.1.5 1.7 1.5 1.7.8 0 1.3-.6 1.3-1h1m-.9-1.4c-.1-.8-.4-1.6-1.5-1.6-.8 0-1.4.8-1.4 1.6h2.9"/><path d="m329.9 337.6c0-1.2.9-1.7 2.2-1.7.4 0 1.9.1 1.9 1.5v3c0 .2.1.3.3.3.1 0 .2 0 .3 0v.6c-.1 0-.3.1-.5.1-.8 0-.9-.4-.9-.8-.3.4-.9.8-1.9.8-1 0-1.6-.6-1.6-1.5 0-.4.1-1.5 1.6-1.6l1.4-.2c.2 0 .5-.1.5-.6 0-.5-.4-.8-1.2-.8-1 0-1.1.6-1.2 1h-.9zm3.2 1c-.1.1-.4.2-1.4.3-.4.1-1.1.2-1.1.8 0 .6.3.9.9.9.8 0 1.6-.5 1.6-1.2v-.8"/><path d="m335.5 336h.8v.7c.2-.3.6-.9 1.6-.9s1.2.6 1.4.8c.4-.5.8-.8 1.6-.8.6 0 1.6.3 1.6 1.8v3.6h-.9v-3.4c0-.7-.2-1.2-1-1.2-.7 0-1.2.7-1.2 1.4v3.2h-.9v-3.6c0-.4-.2-1-.8-1-.5 0-1.4.3-1.4 1.7v2.8h-.9v-5.1z"/><path d="m350.9 340.8c0 .8 0 2.6-2.4 2.6-.6 0-1.8-.2-2-1.6h.9c.2.8 1 .8 1.2.8 1.5 0 1.5-1.2 1.5-1.8v-.2c-.2.4-.7.7-1.4.7-1.8 0-2.3-1.7-2.3-2.9 0-1.5.8-2.6 2.2-2.6 1 0 1.3.6 1.6.9v-.7h.8v4.8zm-2.3-.2c.6 0 1.4-.4 1.4-1.8 0-.8-.1-2.2-1.4-2.2-1.4 0-1.4 1.3-1.4 2 0 1.2.5 2 1.4 2"/><path d="m354.3 335.9c1.7 0 2.4 1.4 2.4 2.8 0 1.3-.8 2.8-2.4 2.8s-2.4-1.4-2.4-2.8c-.1-1.4.7-2.8 2.4-2.8m0 4.7c1.3 0 1.5-1.3 1.5-2 0-.7-.3-2-1.5-2-1.3 0-1.5 1.3-1.5 2-.1.7.2 2 1.5 2"/><path d="m357.7 337.6c0-1.2.9-1.7 2.2-1.7.4 0 1.9.1 1.9 1.5v3c0 .2.1.3.3.3.1 0 .2 0 .3 0v.6c-.1 0-.3.1-.5.1-.8 0-.9-.4-.9-.8-.3.4-.9.8-1.9.8-1 0-1.6-.6-1.6-1.5 0-.4.1-1.5 1.6-1.6l1.4-.2c.2 0 .5-.1.5-.6 0-.5-.4-.8-1.2-.8-1 0-1.1.6-1.2 1h-.9zm3.2 1c-.1.1-.4.2-1.4.3-.4.1-1.1.2-1.1.8 0 .6.3.9.9.9.8 0 1.6-.5 1.6-1.2v-.8"/><path d="m364.1 341.2h-.9v-7.2h.9v7.2"/><path d="m368.4 337.5c0-.3-.1-.9-1.2-.9-.3 0-1 .1-1 .7 0 .4.3.5 1 .7l.9.2c1.1.3 1.5.7 1.5 1.4 0 1.1-.9 1.7-2.1 1.7-2.1 0-2.2-1.2-2.2-1.8h.8c0 .4.2 1.1 1.4 1.1.6 0 1.2-.2 1.2-.8 0-.4-.3-.6-1-.7l-1-.2c-.7-.2-1.2-.5-1.2-1.3 0-1.1 1-1.7 2-1.7 1.9 0 2 1.4 2 1.6h-1.1"/><path d="m370.5 340.2h1v1c0 1.4-.8 1.5-1 1.5v-.5c.4 0 .5-.5.5-1h-.5v-1"/><path d="m209.3 355.2v-7.2h.9v2.6c.4-.5.9-.8 1.5-.8 1.4 0 2.2 1.1 2.2 2.6 0 1.2-.5 2.9-2.3 2.9-.9 0-1.3-.5-1.4-.8v.6h-.9zm2.2-4.6c-1.3 0-1.4 1.4-1.4 2.2 0 1.4.9 1.8 1.4 1.8 1 0 1.4-.9 1.4-2 0-.7 0-2-1.4-2"/><path d="m219.3 353.6c0 .2-.3 1-.9 1.4-.2.2-.6.4-1.4.4-1.5 0-2.3-1.1-2.3-2.6 0-1.6.8-2.9 2.5-2.9 1.5 0 2.2 1.2 2.2 3h-3.8c0 1.1.5 1.7 1.5 1.7.8 0 1.3-.6 1.3-1h.9m-.8-1.4c-.1-.8-.4-1.6-1.5-1.6-.8 0-1.4.8-1.4 1.6h2.9"/><path d="m224.8 354.8c0 .8 0 2.6-2.4 2.6-.6 0-1.8-.2-2-1.6h.9c.2.8 1 .8 1.2.8 1.5 0 1.5-1.2 1.5-1.8v-.2c-.2.4-.7.7-1.4.7-1.8 0-2.3-1.7-2.3-2.9 0-1.5.8-2.6 2.2-2.6 1 0 1.3.6 1.6.9v-.7h.8v4.8zm-2.3-.2c.6 0 1.4-.4 1.4-1.8 0-.8-.1-2.2-1.4-2.2-1.4 0-1.4 1.3-1.4 2 0 1.2.5 2 1.4 2"/><path d="m226 349.1v-1h.9v1h-.9m.9 6.1h-.9v-5.2h.9v5.2"/><path d="m232.5 355.2h-.9v-3.2c0-.9-.3-1.4-1.1-1.4-.5 0-1.4.3-1.4 1.7v2.8h-.9v-5.1h.8v.7c.2-.3.7-.9 1.6-.9.8 0 1.8.3 1.8 1.8v3.6z"/><path d="m238.1 355.2h-.9v-3.2c0-.9-.3-1.4-1.1-1.4-.5 0-1.4.3-1.4 1.7v2.8h-.9v-5.1h.8v.7c.2-.3.7-.9 1.6-.9.8 0 1.8.3 1.8 1.8v3.6z"/><path d="m239.4 349.1v-1h.9v1h-.9m.9 6.1h-.9v-5.2h.9v5.2"/><path d="m245.8 355.2h-.8v-3.2c0-.9-.3-1.4-1.1-1.4-.5 0-1.4.3-1.4 1.7v2.8h-.9v-5.1h.8v.7c.2-.3.7-.9 1.6-.9.8 0 1.8.3 1.8 1.8v3.6"/><path d="m251.5 354.8c0 .8 0 2.6-2.4 2.6-.6 0-1.8-.2-2-1.6h.9c.2.8 1 .8 1.2.8 1.5 0 1.5-1.2 1.5-1.8v-.2c-.2.4-.7.7-1.4.7-1.8 0-2.3-1.7-2.3-2.9 0-1.5.8-2.6 2.2-2.6 1 0 1.3.6 1.6.9v-.7h.8v4.8zm-2.3-.2c.6 0 1.4-.4 1.4-1.8 0-.8-.1-2.2-1.4-2.2-1.4 0-1.4 1.3-1.4 2 0 1.2.4 2 1.4 2"/><path d="m256.6 350.7v3.4c0 .4.3.4.5.4h.3v.7c-.3 0-.6.1-.7.1-.9 0-1.1-.5-1.1-1.1v-3.4h-.6v-.8h.7v-1.5h.9v1.5h.8v.7h-.8"/><path d="m260.2 349.9c1.7 0 2.4 1.4 2.4 2.8 0 1.3-.8 2.8-2.4 2.8s-2.4-1.4-2.4-2.8c0-1.4.7-2.8 2.4-2.8m0 4.7c1.3 0 1.5-1.3 1.5-2 0-.7-.3-2-1.5-2-1.3 0-1.5 1.3-1.5 2 0 .7.2 2 1.5 2"/><path d="m268.5 349.9c1.7 0 2.4 1.4 2.4 2.8 0 1.3-.8 2.8-2.4 2.8s-2.4-1.4-2.4-2.8c0-1.4.8-2.8 2.4-2.8m0 4.7c1.3 0 1.5-1.3 1.5-2 0-.7-.3-2-1.5-2-1.3 0-1.5 1.3-1.5 2 0 .7.3 2 1.5 2"/><path d="m271.9 350h.8v.7c.2-.3.6-.9 1.6-.9 1.4 0 2.2 1.1 2.2 2.6 0 1.2-.5 2.9-2.3 2.9-.7 0-1.2-.3-1.4-.7v2.6h-.9v-7.2m2.3 4.6c1 0 1.4-.9 1.4-2 0-.7-.1-2-1.4-2-1.3 0-1.4 1.4-1.4 2.2-.1 1.5.8 1.8 1.4 1.8"/><path d="m278.6 350.7v3.4c0 .4.3.4.5.4h.3v.7c-.3 0-.6.1-.7.1-.9 0-1.1-.5-1.1-1.1v-3.4h-.6v-.8h.7v-1.5h.9v1.5h.8v.7h-.8"/><path d="m280.3 349.1v-1h.9v1h-.9m.9 6.1h-.9v-5.2h.9v5.2"/><path d="m282.5 350h.8v.7c.2-.3.6-.9 1.6-.9s1.2.6 1.4.8c.4-.5.8-.8 1.6-.8.6 0 1.6.3 1.6 1.8v3.6h-.9v-3.4c0-.7-.2-1.2-1-1.2-.7 0-1.2.7-1.2 1.4v3.2h-.9v-3.6c0-.4-.2-1-.8-1-.5 0-1.4.3-1.4 1.7v2.8h-.9v-5.1z"/><path d="m290.9 349.1v-1h.9v1h-.9m.8 6.1h-.9v-5.2h.9v5.2"/><path d="m293.9 354.5h3.2v.7h-4.4v-.7l3.1-3.8h-2.8v-.7h4v.7l-3.1 3.8"/><path d="m302.4 353.6c0 .2-.3 1-.9 1.4-.2.2-.6.4-1.4.4-1.5 0-2.3-1.1-2.3-2.6 0-1.6.8-2.9 2.5-2.9 1.5 0 2.2 1.2 2.2 3h-3.8c0 1.1.5 1.7 1.5 1.7.8 0 1.3-.6 1.3-1h.9m-.9-1.4c-.1-.8-.4-1.6-1.5-1.6-.8 0-1.4.8-1.4 1.6h2.9"/><path d="m306.2 350h.8v.7c.2-.3.6-.9 1.6-.9 1.4 0 2.2 1.1 2.2 2.6 0 1.2-.5 2.9-2.3 2.9-.7 0-1.2-.3-1.4-.7v2.6h-.9v-7.2m2.3 4.6c1 0 1.4-.9 1.4-2 0-.7-.1-2-1.4-2-1.3 0-1.4 1.4-1.4 2.2-.1 1.5.8 1.8 1.4 1.8"/><path d="m312.8 355.2h-.9v-5.2h.8v.9c.3-.6.8-1 1.5-1 .1 0 .2 0 .2 0v.9h-.3c-.8 0-1.3.6-1.3 1.4v3"/><path d="m317.1 349.9c1.7 0 2.4 1.4 2.4 2.8 0 1.3-.8 2.8-2.4 2.8s-2.4-1.4-2.4-2.8c-.1-1.4.7-2.8 2.4-2.8m0 4.7c1.3 0 1.5-1.3 1.5-2 0-.7-.3-2-1.5-2-1.3 0-1.5 1.3-1.5 2 0 .7.2 2 1.5 2"/><path d="m323.8 351.8c-.1-.7-.5-1.1-1.2-1.1-1.1 0-1.4 1-1.4 2 0 .9.2 2 1.4 2 .6 0 1.1-.4 1.2-1.2h.8c-.1.8-.6 2-2.1 2-1.5 0-2.3-1.1-2.3-2.6 0-1.6.8-2.9 2.5-2.9 1.4 0 1.9 1 2 1.9h-.9z"/><path d="m329.9 353.6c0 .2-.3 1-.9 1.4-.2.2-.6.4-1.4.4-1.5 0-2.3-1.1-2.3-2.6 0-1.6.8-2.9 2.5-2.9 1.5 0 2.2 1.2 2.2 3h-3.8c0 1.1.5 1.7 1.5 1.7.8 0 1.3-.6 1.3-1h.9m-.8-1.4c-.1-.8-.4-1.6-1.5-1.6-.8 0-1.4.8-1.4 1.6h2.9"/><path d="m334 351.5c0-.3-.1-.9-1.2-.9-.3 0-1 .1-1 .7 0 .4.3.5 1 .7l.9.2c1.1.3 1.5.7 1.5 1.4 0 1.1-.9 1.7-2.1 1.7-2.1 0-2.2-1.2-2.2-1.8h.8c0 .4.2 1.1 1.4 1.1.6 0 1.2-.2 1.2-.8 0-.4-.3-.6-1-.7l-1-.2c-.7-.2-1.2-.5-1.2-1.3 0-1.1 1-1.7 2-1.7 1.9 0 2 1.4 2 1.6h-1.1"/><path d="m339 351.5c0-.3-.1-.9-1.2-.9-.3 0-1 .1-1 .7 0 .4.3.5 1 .7l.9.2c1.1.3 1.5.7 1.5 1.4 0 1.1-.9 1.7-2.1 1.7-2.1 0-2.2-1.2-2.2-1.8h.8c0 .4.2 1.1 1.4 1.1.6 0 1.2-.2 1.2-.8 0-.4-.3-.6-1-.7l-1-.2c-.7-.2-1.2-.5-1.2-1.3 0-1.1 1-1.7 2-1.7 1.9 0 2 1.4 2 1.6h-1.1"/><path d="m345.5 353.6c0 .2-.3 1-.9 1.4-.2.2-.6.4-1.4.4-1.5 0-2.3-1.1-2.3-2.6 0-1.6.8-2.9 2.5-2.9 1.5 0 2.2 1.2 2.2 3h-3.8c0 1.1.5 1.7 1.5 1.7.8 0 1.3-.6 1.3-1h.9m-.8-1.4c-.1-.8-.4-1.6-1.5-1.6-.8 0-1.4.8-1.4 1.6h2.9"/><path d="m349.6 351.5c0-.3-.1-.9-1.2-.9-.3 0-1 .1-1 .7 0 .4.3.5 1 .7l.9.2c1.1.3 1.5.7 1.5 1.4 0 1.1-.9 1.7-2.1 1.7-2.1 0-2.2-1.2-2.2-1.8h.8c0 .4.2 1.1 1.4 1.1.6 0 1.2-.2 1.2-.8 0-.4-.3-.6-1-.7l-1-.2c-.7-.2-1.2-.5-1.2-1.3 0-1.1 1-1.7 2-1.7 1.9 0 2 1.4 2 1.6h-1.1"/></g><path fill="#59aee0" d="m189.4 301.9l2.3-2.1h-3.7v-1.1h5.3v1.1l-2.2 2.1c1.1 0 2.4.8 2.4 2.4 0 1.3-1 2.5-2.8 2.5-1.8 0-2.8-1.2-2.9-2.4l1.2-.3c0 1 .8 1.7 1.7 1.7 1.1 0 1.6-.7 1.6-1.4 0-1-.8-1.5-1.6-1.5-.2 0-.5 0-.7.1l-.6-1.1"/><circle fill="none" stroke="#59aee0" stroke-miterlimit="10" cx="190.6" cy="302.7" r="8.7"/><g fill="#68ab47"><path d="m34.8 183.3v3.7h-1.9v-9.9h3.7c2 0 3.3 1.3 3.3 3.1 0 1.8-1.3 3.1-3.3 3.1h-1.8m1.6-1.6c1 0 1.6-.6 1.6-1.4 0-.9-.6-1.4-1.6-1.4h-1.5v2.8h1.5"/><path d="m41.4 187.1v-9.9h6.2v1.8h-4.3v2.3h3.9v1.7h-3.9v2.3h4.3v1.8h-6.2"/><path d="m52.5 183.2h-1v3.8h-1.9v-9.9h3.9c1.9 0 3.2 1.3 3.2 3.1 0 1.4-.8 2.4-2.1 2.8l2.1 4.1h-2.2l-2-3.9m.5-1.6c1 0 1.6-.6 1.6-1.4 0-.8-.6-1.4-1.6-1.4h-1.6v2.8h1.6"/><path d="M58.2,187.1v-9.9h6.3v1.8h-4.3v2.5H64v1.8h-3.9v3.9H58.2z"/><path d="m70.6 176.9c2.7 0 5.1 2 5.1 5.2 0 3.2-2.4 5.2-5.1 5.2-2.7 0-5.1-2-5.1-5.2 0-3.2 2.4-5.2 5.1-5.2m0 8.5c1.5 0 3.1-1.1 3.1-3.3s-1.6-3.3-3.1-3.3c-1.5 0-3.1 1.1-3.1 3.3s1.5 3.3 3.1 3.3"/><path d="m80.3 183.2h-1v3.8h-1.9v-9.9h3.9c1.9 0 3.2 1.3 3.2 3.1 0 1.4-.8 2.4-2.1 2.8l2.1 4.1h-2.2l-2-3.9m.6-1.6c1 0 1.6-.6 1.6-1.4 0-.8-.6-1.4-1.6-1.4h-1.6v2.8h1.6"/><path d="m95.3 187.1v-7l-2.9 7h-1.6l-2.9-6.9v6.9h-1.8v-9.9h2.5l3 7.2 2.9-7.2h2.6v9.9h-1.8"/><path d="m99.4 187.1v-9.9h2v9.9h-2"/><path d="m110.1 187.1l-4.5-7v7h-1.9v-9.9h2.4l4.1 6.6v-6.6h1.9v9.9h-2"/><path d="m121.8 187.1l-.1-1.1c-.4.7-1.4 1.3-2.9 1.3-2.7 0-5-2-5-5.2 0-3.2 2.4-5.2 5.1-5.2 2.6 0 4 1.5 4.5 3.1l-1.8.7c-.3-.9-1.1-1.9-2.7-1.9-1.5 0-3.1 1-3.1 3.4 0 2.2 1.5 3.4 3.1 3.4 1.8 0 2.5-1.2 2.7-1.9h-3.1v-1.7h5v5.2h-1.7z"/></g><g fill="#333"><path d="m235.8 166.3v3.7h-1.9v-9.9h3.7c2 0 3.3 1.3 3.3 3.1 0 1.8-1.3 3.1-3.3 3.1h-1.8m1.6-1.7c1 0 1.6-.6 1.6-1.4 0-.9-.6-1.4-1.6-1.4h-1.5v2.8h1.5"/><path d="m248.6 170v-4.1h-4.3v4.1h-1.9v-9.9h1.9v4h4.3v-4h1.9v9.9h-1.9"/><path d="m258.7 167.7h-4l-.8 2.3h-2l3.8-9.9h2.2l3.8 9.9h-2.1l-.9-2.3m-3.4-1.7h2.7l-1.4-3.8-1.3 3.8"/><path d="m267.8 163c-.1-.5-.5-1.4-1.8-1.4-.9 0-1.6.6-1.6 1.3 0 .5.3 1 1.1 1.1l1.4.3c1.8.4 2.8 1.5 2.8 2.9 0 1.5-1.3 3.1-3.6 3.1-2.6 0-3.8-1.7-4-3.1l1.8-.5c.1 1 .8 1.9 2.2 1.9 1 0 1.6-.5 1.6-1.2 0-.6-.4-1-1.2-1.2l-1.4-.3c-1.6-.3-2.6-1.3-2.6-2.8 0-1.8 1.6-3.1 3.5-3.1 2.4 0 3.3 1.5 3.6 2.6l-1.8.4"/><path d="m271.3 170v-9.9h6.2v1.8h-4.3v2.3h3.9v1.7h-3.9v2.3h4.3v1.8h-6.2"/><path d="m284.4 163c-.1-.5-.5-1.4-1.8-1.4-.9 0-1.6.6-1.6 1.3 0 .5.3 1 1.1 1.1l1.4.3c1.8.4 2.8 1.5 2.8 2.9 0 1.5-1.3 3.1-3.6 3.1-2.6 0-3.8-1.7-4-3.1l1.8-.5c.1 1 .8 1.9 2.2 1.9 1 0 1.6-.5 1.6-1.2 0-.6-.4-1-1.2-1.2l-1.4-.3c-1.6-.3-2.6-1.3-2.6-2.8 0-1.8 1.6-3.1 3.5-3.1 2.4 0 3.3 1.5 3.6 2.6l-1.8.4"/><path d="m295.9 159.9c2.7 0 5.1 2 5.1 5.2 0 3.2-2.4 5.2-5.1 5.2-2.7 0-5.1-2-5.1-5.2 0-3.3 2.4-5.2 5.1-5.2m0 8.4c1.5 0 3.1-1.1 3.1-3.3s-1.6-3.3-3.1-3.3c-1.5 0-3.1 1.1-3.1 3.3s1.6 3.3 3.1 3.3"/><path d="m302.7 170v-9.9h6.3v1.8h-4.3v2.5h3.9v1.8h-3.9v3.9h-2z"/><path d="m255.1 190l-.1-1.1c-.4.7-1.4 1.3-2.9 1.3-2.7 0-5-2-5-5.2 0-3.2 2.4-5.2 5.1-5.2 2.6 0 4 1.5 4.5 3.1l-1.8.7c-.3-.9-1.1-1.9-2.7-1.9-1.5 0-3.1 1-3.1 3.4 0 2.2 1.5 3.4 3.1 3.4 1.8 0 2.5-1.2 2.7-1.9h-3.1v-1.7h5v5.2h-1.7z"/><path d="m261.6 186.2h-1v3.8h-1.9v-9.9h3.9c1.9 0 3.2 1.3 3.2 3.1 0 1.4-.8 2.4-2.1 2.8l2.1 4.1h-2.2l-2-3.9m.5-1.7c1 0 1.6-.6 1.6-1.4 0-.8-.6-1.4-1.6-1.4h-1.6v2.8h1.6"/><path d="m271.8 179.9c2.7 0 5.1 2 5.1 5.2 0 3.2-2.4 5.2-5.1 5.2-2.7 0-5.1-2-5.1-5.2 0-3.3 2.4-5.2 5.1-5.2m0 8.4c1.5 0 3.1-1.1 3.1-3.3s-1.6-3.3-3.1-3.3c-1.5 0-3.1 1.1-3.1 3.3s1.6 3.3 3.1 3.3"/><path d="m278.5 186.5v-6.4h1.9v6.3c0 1.3.7 2 1.9 2 1.2 0 1.9-.7 1.9-2v-6.3h1.9v6.4c0 2.4-1.7 3.7-3.8 3.7-2.1 0-3.8-1.3-3.8-3.7"/><path d="m290.2 186.3v3.7h-1.9v-9.9h3.7c2 0 3.3 1.3 3.3 3.1 0 1.8-1.3 3.1-3.3 3.1h-1.8m1.6-1.7c1 0 1.6-.6 1.6-1.4 0-.9-.6-1.4-1.6-1.4h-1.5v2.8h1.5"/><path d="m220.1 210v-9.9h3.6c2.8 0 4.9 1.8 4.9 5s-2.1 5-4.9 5h-3.6zm3.5-1.8c1.6 0 3-1 3-3.2 0-2.2-1.3-3.2-3-3.2h-1.6v6.3h1.6z"/><path d="m230.2 210v-9.9h6.2v1.8h-4.3v2.3h3.9v1.7h-3.9v2.3h4.3v1.8h-6.2"/><path d="m244.7 200.1h2l-3.7 9.9h-2l-3.7-9.9h2.1l2.6 7.4 2.7-7.4"/><path d="M248,210v-9.9h6.2v1.8H250v2.3h3.9v1.7H250v2.3h4.3v1.8H248z"/><path d="m256.2 210v-9.9h1.9v8.1h4.4v1.8h-6.3"/><path d="m268.2 199.9c2.7 0 5.1 2 5.1 5.2 0 3.2-2.4 5.2-5.1 5.2-2.7 0-5.1-2-5.1-5.2 0-3.3 2.4-5.2 5.1-5.2m0 8.4c1.5 0 3.1-1.1 3.1-3.3s-1.6-3.3-3.1-3.3c-1.5 0-3.1 1.1-3.1 3.3s1.6 3.3 3.1 3.3"/><path d="m276.9 206.3v3.7h-1.9v-9.9h3.7c2 0 3.3 1.3 3.3 3.1 0 1.8-1.3 3.1-3.3 3.1h-1.8m1.6-1.7c1 0 1.6-.6 1.6-1.4 0-.9-.6-1.4-1.6-1.4h-1.5v2.8h1.5"/><path d="m292.6 210v-7l-2.9 7h-1.6l-2.9-6.9v6.9h-1.8v-9.9h2.5l3 7.2 2.9-7.2h2.6v9.9h-1.8"/><path d="m296.8 210v-9.9h6.2v1.8h-4.3v2.3h3.9v1.7h-3.9v2.3h4.3v1.8h-6.2"/><path d="m311.4 210l-4.5-7v7h-1.9v-9.9h2.4l4.1 6.6v-6.6h1.9v9.9h-2"/><path d="m319.8 201.9v8.1h-1.9v-8.1h-3.1v-1.8h8.2v1.8h-3.2"/></g><g fill="#717171"><path d="m31.9 200.2h5.8v.9h-2.4v6.3h-1v-6.3h-2.4v-.9"/><path d="m41.8 205.7c0 .2-.3 1-.9 1.4-.2.2-.6.4-1.4.4-1.5 0-2.3-1.1-2.3-2.6 0-1.6.8-2.9 2.5-2.9 1.5 0 2.2 1.2 2.2 3h-3.9c0 1.1.5 1.7 1.5 1.7.8 0 1.3-.6 1.3-1h1m-.9-1.4c-.1-.8-.4-1.6-1.5-1.6-.8 0-1.4.8-1.4 1.6h2.9"/><path d="m42.9 203.7c0-1.2.9-1.7 2.2-1.7.4 0 1.9.1 1.9 1.5v3c0 .2.1.3.3.3.1 0 .2 0 .3 0v.6c-.1 0-.3.1-.5.1-.8 0-.9-.4-.9-.8-.3.4-.9.8-1.9.8-1 0-1.6-.6-1.6-1.5 0-.4.1-1.5 1.6-1.6l1.4-.2c.2 0 .5-.1.5-.6 0-.5-.4-.8-1.2-.8-1 0-1.1.6-1.2 1h-.9zm3.2 1c-.1.1-.4.2-1.4.3-.4.1-1.1.2-1.1.8 0 .6.3.9.9.9.8 0 1.6-.5 1.6-1.2v-.8"/><path d="m48.5 202.1h.8v.7c.2-.3.6-.9 1.6-.9s1.2.6 1.4.8c.4-.5.8-.8 1.6-.8.6 0 1.6.3 1.6 1.8v3.6h-.9v-3.3c0-.7-.2-1.2-1-1.2-.7 0-1.2.7-1.2 1.4v3.2h-.9v-3.6c0-.4-.2-1-.8-1-.5 0-1.4.3-1.4 1.7v2.8h-.9v-5.2z"/><path d="m59.6 201.2v-1h.9v1h-.9m.9 6.2h-.9v-5.2h.9v5.2"/><path d="m64.8 203.6c0-.3-.1-.9-1.2-.9-.3 0-1 .1-1 .7 0 .4.3.5 1 .7l.9.2c1.1.3 1.5.7 1.5 1.4 0 1.1-.9 1.7-2.1 1.7-2.1 0-2.2-1.2-2.2-1.8h.8c0 .4.2 1.1 1.4 1.1.6 0 1.2-.2 1.2-.8 0-.4-.3-.6-1-.7l-1-.2c-.7-.2-1.2-.5-1.2-1.3 0-1.1 1-1.7 2-1.7 1.9 0 2 1.4 2 1.6h-1.1"/><path d="m69.5 202.1h.8v.7c.2-.3.6-.9 1.6-.9 1.4 0 2.2 1.1 2.2 2.6 0 1.2-.5 2.9-2.3 2.9-.7 0-1.2-.3-1.4-.7v2.6h-.9v-7.2m2.3 4.7c1 0 1.4-.9 1.4-2 0-.7-.1-2-1.4-2-1.3 0-1.4 1.4-1.4 2.2-.1 1.4.8 1.8 1.4 1.8"/><path d="m79.6 205.7c0 .2-.3 1-.9 1.4-.2.2-.6.4-1.4.4-1.5 0-2.3-1.1-2.3-2.6 0-1.6.8-2.9 2.5-2.9 1.5 0 2.2 1.2 2.2 3h-3.8c0 1.1.5 1.7 1.5 1.7.8 0 1.3-.6 1.3-1h.9m-.9-1.4c-.1-.8-.4-1.6-1.5-1.6-.8 0-1.4.8-1.4 1.6h2.9"/><path d="m81.7 207.4h-.9v-5.2h.8v.9c.3-.6.8-1 1.5-1 .1 0 .2 0 .2 0v.9h-.3c-.8 0-1.3.6-1.3 1.4v3"/><path d="m85.1 202.9v4.5h-.9v-4.5h-.7v-.7h.7v-.9c0-.8.5-1.1 1.4-1.1.1 0 .3 0 .4 0v.8c-.1 0-.2 0-.4 0-.4 0-.5.2-.5.6v.6h.9v.7h-.9"/><path d="m88.6 202c1.7 0 2.4 1.4 2.4 2.8 0 1.3-.8 2.8-2.4 2.8s-2.4-1.4-2.4-2.8c0-1.4.8-2.8 2.4-2.8m0 4.8c1.3 0 1.5-1.3 1.5-2 0-.7-.3-2-1.5-2-1.3 0-1.5 1.3-1.5 2 0 .7.3 2 1.5 2"/><path d="m93.1 207.4h-.9v-5.2h.8v.9c.3-.6.8-1 1.5-1 .1 0 .2 0 .2 0v.9h-.3c-.8 0-1.3.6-1.3 1.4v3"/><path d="m95.6 202.1h.8v.7c.2-.3.6-.9 1.6-.9s1.2.6 1.4.8c.4-.5.8-.8 1.6-.8.6 0 1.6.3 1.6 1.8v3.6h-.9v-3.3c0-.7-.2-1.2-1-1.2-.7 0-1.2.7-1.2 1.4v3.2h-.9v-3.6c0-.4-.2-1-.8-1-.5 0-1.4.3-1.4 1.7v2.8h-.9v-5.2z"/><path d="m104 201.2v-1h.9v1h-.9m.9 6.2h-.9v-5.2h.9v5.2"/><path d="m110.4 207.4h-.9v-3.2c0-.9-.3-1.4-1.1-1.4-.5 0-1.4.3-1.4 1.7v2.8h-.9v-5.2h.8v.7c.2-.3.7-.9 1.6-.9.8 0 1.8.3 1.8 1.8v3.7z"/><path d="m116.1 206.9c0 .8 0 2.6-2.4 2.6-.6 0-1.8-.2-2-1.6h.9c.2.8 1 .8 1.2.8 1.5 0 1.5-1.2 1.5-1.8v-.2c-.2.4-.7.7-1.4.7-1.8 0-2.3-1.7-2.3-2.9 0-1.5.8-2.6 2.2-2.6 1 0 1.3.6 1.6.9v-.7h.8v4.8zm-2.3-.1c.6 0 1.4-.4 1.4-1.8 0-.8-.1-2.2-1.4-2.2-1.4 0-1.4 1.3-1.4 2 0 1.1.5 2 1.4 2"/><path d="m122 207.4h-.9l-1.5-5.2h1l1 4.1 1-4.1h1l1 4.1 1.1-4.1h.9l-1.5 5.2h-.9l-1.1-4-1.1 4"/><path d="m131.6 205.7c0 .2-.3 1-.9 1.4-.2.2-.6.4-1.4.4-1.5 0-2.3-1.1-2.3-2.6 0-1.6.8-2.9 2.5-2.9 1.5 0 2.2 1.2 2.2 3h-3.8c0 1.1.5 1.7 1.5 1.7.8 0 1.3-.6 1.3-1h.9m-.8-1.4c-.1-.8-.4-1.6-1.5-1.6-.8 0-1.4.8-1.4 1.6h2.9"/><path d="m133.7 207.4h-.9v-7.2h.9v7.2"/><path d="m135.9 207.4h-.9v-7.2h.9v7.2"/><path d="m137.4 206.3h1v1c0 1.4-.8 1.5-1 1.5v-.5c.4 0 .5-.5.5-1h-.5v-1"/><path d="m143.9 202.9v4.5h-.9v-4.5h-.7v-.7h.7v-.9c0-.8.5-1.1 1.4-1.1.1 0 .3 0 .4 0v.8c-.1 0-.2 0-.4 0-.4 0-.5.2-.5.6v.6h.9v.7h-.9"/><path d="m147.4 202c1.7 0 2.4 1.4 2.4 2.8 0 1.3-.8 2.8-2.4 2.8s-2.4-1.4-2.4-2.8c-.1-1.4.7-2.8 2.4-2.8m0 4.8c1.3 0 1.5-1.3 1.5-2 0-.7-.3-2-1.5-2-1.3 0-1.5 1.3-1.5 2 0 .7.2 2 1.5 2"/><path d="m154.1 203.9c-.1-.7-.5-1.1-1.2-1.1-1.1 0-1.4 1-1.4 2 0 .9.2 2 1.4 2 .6 0 1.1-.4 1.2-1.2h.8c-.1.8-.6 2-2.1 2-1.5 0-2.3-1.1-2.3-2.6 0-1.6.8-2.9 2.5-2.9 1.4 0 1.9 1 2 1.9h-.9z"/><path d="m159.2 207.4v-.8c-.4.6-.8.9-1.7.9-.8 0-1.7-.4-1.7-1.6v-3.8h.9v3.5c0 .9.4 1.1 1 1.1 1.1 0 1.4-1 1.4-1.7v-2.9h.9v5.2h-.8z"/><path d="m164.3 203.6c0-.3-.1-.9-1.2-.9-.3 0-1 .1-1 .7 0 .4.3.5 1 .7l.9.2c1.1.3 1.5.7 1.5 1.4 0 1.1-.9 1.7-2.1 1.7-2.1 0-2.2-1.2-2.2-1.8h.8c0 .4.2 1.1 1.4 1.1.6 0 1.2-.2 1.2-.8 0-.4-.3-.6-1-.7l-1-.2c-.7-.2-1.2-.5-1.2-1.3 0-1.1 1-1.7 2-1.7 1.9 0 2 1.4 2 1.6h-1.1"/><path d="m32.4 215.2v-1h.9v1h-.9m.9 6.2h-.9v-5.2h.9v5.2"/><path d="m37.6 217.6c0-.3-.1-.9-1.2-.9-.3 0-1 .1-1 .7 0 .4.3.5 1 .7l.9.2c1.1.3 1.5.7 1.5 1.4 0 1.1-.9 1.7-2.1 1.7-2.1 0-2.2-1.2-2.2-1.8h.8c0 .4.2 1.1 1.4 1.1.6 0 1.2-.2 1.2-.8 0-.4-.3-.6-1-.7l-1-.2c-.7-.2-1.2-.5-1.2-1.3 0-1.1 1-1.7 2-1.7 1.9 0 2 1.4 2 1.6h-1.1"/><path d="m44.6 216c1.7 0 2.4 1.4 2.4 2.8 0 1.3-.8 2.8-2.4 2.8s-2.4-1.4-2.4-2.8c-.1-1.4.7-2.8 2.4-2.8m0 4.8c1.3 0 1.5-1.3 1.5-2 0-.7-.3-2-1.5-2-1.3 0-1.5 1.3-1.5 2-.1.7.2 2 1.5 2"/><path d="m52.2 221.4h-.9v-3.2c0-.9-.3-1.4-1.1-1.4-.5 0-1.4.3-1.4 1.7v2.8h-.8v-5.2h.8v.7c.2-.3.7-.9 1.6-.9.8 0 1.8.3 1.8 1.8v3.7"/><path d="m56.3 221.4v-7.2h.9v2.6c.4-.5.9-.8 1.5-.8 1.4 0 2.2 1.1 2.2 2.6 0 1.2-.5 2.9-2.3 2.9-.9 0-1.3-.5-1.4-.8v.6h-.9zm2.2-4.6c-1.3 0-1.4 1.4-1.4 2.2 0 1.4.9 1.8 1.4 1.8 1 0 1.4-.9 1.4-2 0-.7 0-2-1.4-2"/><path d="m66.3 219.7c0 .2-.3 1-.9 1.4-.2.2-.6.4-1.4.4-1.5 0-2.3-1.1-2.3-2.6 0-1.6.8-2.9 2.5-2.9 1.5 0 2.2 1.2 2.2 3h-3.8c0 1.1.5 1.7 1.5 1.7.8 0 1.3-.6 1.3-1h.9m-.8-1.4c-.1-.8-.4-1.6-1.5-1.6-.8 0-1.4.8-1.4 1.6h2.9"/><path d="m67.5 215.2v-1h.9v1h-.9m.8 6.2h-.9v-5.2h.9v5.2"/><path d="m73.9 221.4h-.9v-3.2c0-.9-.3-1.4-1.1-1.4-.5 0-1.4.3-1.4 1.7v2.8h-.9v-5.2h.8v.7c.2-.3.7-.9 1.6-.9.8 0 1.8.3 1.8 1.8v3.7z"/><path d="m79.6 220.9c0 .8 0 2.6-2.4 2.6-.6 0-1.8-.2-2-1.6h.8c.2.8 1 .8 1.2.8 1.5 0 1.5-1.2 1.5-1.8v-.2c-.2.4-.7.7-1.4.7-1.8 0-2.3-1.7-2.3-2.9 0-1.5.8-2.6 2.2-2.6 1 0 1.3.6 1.6.9v-.7h.8v4.8m-2.3-.1c.6 0 1.4-.4 1.4-1.8 0-.8-.1-2.2-1.4-2.2-1.4 0-1.4 1.3-1.4 2 0 1.1.4 2 1.4 2"/><path d="m86.5 217.6c0-.3-.1-.9-1.2-.9-.3 0-1 .1-1 .7 0 .4.3.5 1 .7l.9.2c1.1.3 1.5.7 1.5 1.4 0 1.1-.9 1.7-2.1 1.7-2.1 0-2.2-1.2-2.2-1.8h.8c0 .4.2 1.1 1.4 1.1.6 0 1.2-.2 1.2-.8 0-.4-.3-.6-1-.7l-1-.2c-.7-.2-1.2-.5-1.2-1.3 0-1.1 1-1.7 2-1.7 1.9 0 2 1.4 2 1.6h-1.1"/><path d="m89.6 216.9v3.4c0 .4.3.4.5.4h.3v.7c-.3 0-.6.1-.7.1-.9 0-1.1-.5-1.1-1.1v-3.4h-.7v-.7h.7v-1.5h.9v1.5h.8v.7h-.7z"/><path d="m92.3 221.4h-.9v-5.2h.8v.9c.3-.6.8-1 1.5-1 .1 0 .2 0 .2 0v.9h-.3c-.8 0-1.3.6-1.3 1.4v3"/><path d="m94.5 217.7c0-1.2.9-1.7 2.2-1.7.4 0 1.9.1 1.9 1.5v3c0 .2.1.3.3.3.1 0 .2 0 .3 0v.6c-.1 0-.3.1-.5.1-.8 0-.9-.4-.9-.8-.3.4-.9.8-1.9.8-1 0-1.6-.6-1.6-1.5 0-.4.1-1.5 1.6-1.6l1.4-.2c.2 0 .5-.1.5-.6 0-.5-.4-.8-1.2-.8-1 0-1.1.6-1.2 1h-.9zm3.3 1c-.1.1-.4.2-1.4.3-.4.1-1.1.2-1.1.8 0 .6.3.9.9.9.8 0 1.6-.5 1.6-1.2v-.8"/><path d="m101.2 216.9v3.4c0 .4.3.4.5.4h.3v.7c-.3 0-.6.1-.7.1-.9 0-1.1-.5-1.1-1.1v-3.4h-.7v-.7h.7v-1.5h.9v1.5h.8v.7h-.7z"/><path d="m107.2 219.7c0 .2-.3 1-.9 1.4-.2.2-.6.4-1.4.4-1.5 0-2.3-1.1-2.3-2.6 0-1.6.8-2.9 2.5-2.9 1.5 0 2.2 1.2 2.2 3h-3.8c0 1.1.5 1.7 1.5 1.7.8 0 1.3-.6 1.3-1h.9m-.9-1.4c-.1-.8-.4-1.6-1.5-1.6-.8 0-1.4.8-1.4 1.6h2.9"/><path d="m112.6 220.9c0 .8 0 2.6-2.4 2.6-.6 0-1.8-.2-2-1.6h.9c.2.8 1 .8 1.2.8 1.5 0 1.5-1.2 1.5-1.8v-.2c-.2.4-.7.7-1.4.7-1.8 0-2.3-1.7-2.3-2.9 0-1.5.8-2.6 2.2-2.6 1 0 1.3.6 1.6.9v-.7h.8v4.8zm-2.3-.1c.6 0 1.4-.4 1.4-1.8 0-.8-.1-2.2-1.4-2.2-1.4 0-1.4 1.3-1.4 2 0 1.1.5 2 1.4 2"/><path d="m113.9 215.2v-1h.9v1h-.9m.8 6.2h-.9v-5.2h.9v5.2"/><path d="m119.3 217.9c-.1-.7-.5-1.1-1.2-1.1-1.1 0-1.4 1-1.4 2 0 .9.2 2 1.4 2 .6 0 1.1-.4 1.2-1.2h.8c-.1.8-.6 2-2.1 2-1.5 0-2.3-1.1-2.3-2.6 0-1.6.8-2.9 2.5-2.9 1.4 0 1.9 1 2 1.9h-.9z"/><path d="m121.1 220.3h1v1c0 1.4-.8 1.5-1 1.5v-.5c.4 0 .5-.5.5-1h-.5v-1"/><path d="m127.5 216.9v3.4c0 .4.3.4.5.4h.3v.7c-.3 0-.6.1-.7.1-.9 0-1.1-.5-1.1-1.1v-3.4h-.5v-.7h.7v-1.5h.9v1.5h.8v.7h-.9z"/><path d="m133.5 219.7c0 .2-.3 1-.9 1.4-.2.2-.6.4-1.4.4-1.5 0-2.3-1.1-2.3-2.6 0-1.6.8-2.9 2.5-2.9 1.5 0 2.2 1.2 2.2 3h-3.8c0 1.1.5 1.7 1.5 1.7.8 0 1.3-.6 1.3-1h.9m-.9-1.4c-.1-.8-.4-1.6-1.5-1.6-.8 0-1.4.8-1.4 1.6h2.9"/><path d="m134.6 217.7c0-1.2.9-1.7 2.2-1.7.4 0 1.9.1 1.9 1.5v3c0 .2.1.3.3.3.1 0 .2 0 .3 0v.6c-.1 0-.3.1-.5.1-.8 0-.9-.4-.9-.8-.3.4-.9.8-1.9.8-1 0-1.6-.6-1.6-1.5 0-.4.1-1.5 1.6-1.6l1.4-.2c.2 0 .5-.1.5-.6 0-.5-.4-.8-1.2-.8-1 0-1.1.6-1.2 1h-.9zm3.2 1c-.1.1-.4.2-1.4.3-.4.1-1.1.2-1.1.8 0 .6.3.9.9.9.8 0 1.6-.5 1.6-1.2v-.8"/><path d="m140.2 216.1h.8v.7c.2-.3.6-.9 1.6-.9s1.2.6 1.4.8c.4-.5.8-.8 1.6-.8.6 0 1.6.3 1.6 1.8v3.6h-.9v-3.3c0-.7-.2-1.2-1-1.2-.7 0-1.2.7-1.2 1.4v3.2h-.9v-3.6c0-.4-.2-1-.8-1-.5 0-1.4.3-1.4 1.7v2.8h-.9v-5.2z"/><path d="m151.3 215.2v-1h.9v1h-.9m.9 6.2h-.9v-5.2h.9v5.2"/><path d="m156.5 217.6c0-.3-.1-.9-1.2-.9-.3 0-1 .1-1 .7 0 .4.3.5 1 .7l.9.2c1.1.3 1.5.7 1.5 1.4 0 1.1-.9 1.7-2.1 1.7-2.1 0-2.2-1.2-2.2-1.8h.8c0 .4.2 1.1 1.4 1.1.6 0 1.2-.2 1.2-.8 0-.4-.3-.6-1-.7l-1-.2c-.7-.2-1.2-.5-1.2-1.3 0-1.1 1-1.7 2-1.7 1.9 0 2 1.4 2 1.6h-1.1"/><path d="m33.4 235.4h-.9v-5.2h.8v.9c.3-.6.8-1 1.5-1 .1 0 .2 0 .2 0v.9h-.3c-.8 0-1.3.6-1.3 1.4v3"/><path d="m39.3 235.4v-.8c-.4.6-.8.9-1.7.9-.8 0-1.7-.4-1.7-1.6v-3.8h.9v3.5c0 .9.4 1.1 1 1.1 1.1 0 1.4-1 1.4-1.7v-2.9h.9v5.2h-.8z"/><path d="m45.7 235.4h-.9v-3.2c0-.9-.3-1.4-1.1-1.4-.5 0-1.4.3-1.4 1.7v2.8h-.9v-5.2h.8v.7c.2-.3.7-.9 1.6-.9.8 0 1.8.3 1.8 1.8v3.7z"/><path d="m51.3 235.4h-.9v-3.2c0-.9-.3-1.4-1.1-1.4-.5 0-1.4.3-1.4 1.7v2.8h-.9v-5.2h.8v.7c.2-.3.7-.9 1.6-.9.8 0 1.8.3 1.8 1.8v3.7z"/><path d="m52.6 229.2v-1h.9v1h-.9m.9 6.2h-.9v-5.2h.9v5.2"/><path d="m59.1 235.4h-.9v-3.2c0-.9-.3-1.4-1.1-1.4-.5 0-1.4.3-1.4 1.7v2.8h-.9v-5.2h.8v.7c.2-.3.7-.9 1.6-.9.8 0 1.8.3 1.8 1.8v3.7z"/><path d="m64.7 234.9c0 .8 0 2.6-2.4 2.6-.6 0-1.8-.2-2-1.6h.9c.2.8 1 .8 1.2.8 1.5 0 1.5-1.2 1.5-1.8v-.2c-.2.4-.7.7-1.4.7-1.8 0-2.3-1.7-2.3-2.9 0-1.5.8-2.6 2.2-2.6 1 0 1.3.6 1.6.9v-.7h.8v4.8zm-2.3-.1c.6 0 1.4-.4 1.4-1.8 0-.8-.1-2.2-1.4-2.2-1.4 0-1.4 1.3-1.4 2 0 1.1.5 2 1.4 2"/><path d="m70.6 235.4h-.9l-1.5-5.2h1l1 4.1 1-4.1h1l1 4.1 1.1-4.1h.9l-1.5 5.2h-.9l-1.1-4-1.1 4"/><path d="m80.3 233.7c0 .2-.3 1-.9 1.4-.2.2-.6.4-1.4.4-1.5 0-2.3-1.1-2.3-2.6 0-1.6.8-2.9 2.5-2.9 1.5 0 2.2 1.2 2.2 3h-3.8c0 1.1.5 1.7 1.5 1.7.8 0 1.3-.6 1.3-1h.9m-.9-1.4c-.1-.8-.4-1.6-1.5-1.6-.8 0-1.4.8-1.4 1.6h2.9"/><path d="m82.3 235.4h-.9v-7.2h.9v7.2"/><path d="m84.5 235.4h-.9v-7.2h.9v7.2"/><path d="m90.5 235.4h-.9l-1.5-5.2h1l1 4.1 1-4.1h1l1 4.1 1.1-4.1h.8l-1.5 5.2h-.9l-1.1-4-1 4"/><path d="m95.8 229.2v-1h.9v1h-.9m.9 6.2h-.9v-5.2h.9v5.2"/><path d="m99.1 230.9v3.4c0 .4.3.4.5.4h.3v.7c-.3 0-.6.1-.7.1-.9 0-1.1-.5-1.1-1.1v-3.4h-.7v-.7h.7v-1.5h.9v1.5h.8v.7h-.7z"/><path d="m105.1 235.4h-.9v-3.4c0-.7-.2-1.2-1-1.2-.7 0-1.5.4-1.5 1.7v2.8h-.9v-7.2h.9v2.6c.2-.3.7-.8 1.5-.8.8 0 1.8.3 1.8 1.8v3.7z"/><path d="m110.1 235.4h-.9v-7.2h.9v7.2"/><path d="m111.4 229.2v-1h.9v1h-.9m.9 6.2h-.9v-5.2h.9v5.2"/><path d="m114.7 230.9v3.4c0 .4.3.4.5.4h.3v.7c-.3 0-.6.1-.7.1-.9 0-1.1-.5-1.1-1.1v-3.4h-.7v-.7h.7v-1.5h.9v1.5h.8v.7h-.7z"/><path d="m117.1 230.9v3.4c0 .4.3.4.5.4h.3v.7c-.3 0-.6.1-.7.1-.9 0-1.1-.5-1.1-1.1v-3.4h-.7v-.7h.7v-1.5h.9v1.5h.8v.7h-.7z"/><path d="m119.7 235.4h-.9v-7.2h.9v7.2"/><path d="m125.4 233.7c0 .2-.3 1-.9 1.4-.2.2-.6.4-1.4.4-1.5 0-2.3-1.1-2.3-2.6 0-1.6.8-2.9 2.5-2.9 1.5 0 2.2 1.2 2.2 3h-3.8c0 1.1.5 1.7 1.5 1.7.8 0 1.3-.6 1.3-1h.9m-.8-1.4c-.1-.8-.4-1.6-1.5-1.6-.8 0-1.4.8-1.4 1.6h2.9"/><path d="m131.5 230c1.7 0 2.4 1.4 2.4 2.8 0 1.3-.8 2.8-2.4 2.8s-2.4-1.4-2.4-2.8c-.1-1.4.7-2.8 2.4-2.8m0 4.8c1.3 0 1.5-1.3 1.5-2 0-.7-.3-2-1.5-2-1.3 0-1.5 1.3-1.5 2-.1.7.2 2 1.5 2"/><path d="m138 230.1h1l-2 5.2h-.9l-1.9-5.2h1l1.4 4.3 1.4-4.3"/><path d="m143.9 233.7c0 .2-.3 1-.9 1.4-.2.2-.6.4-1.4.4-1.5 0-2.3-1.1-2.3-2.6 0-1.6.8-2.9 2.5-2.9 1.5 0 2.2 1.2 2.2 3h-3.8c0 1.1.5 1.7 1.5 1.7.8 0 1.3-.6 1.3-1h.9m-.8-1.4c-.1-.8-.4-1.6-1.5-1.6-.8 0-1.4.8-1.4 1.6h2.9"/><path d="m146 235.4h-.9v-5.2h.8v.9c.3-.6.8-1 1.5-1 .1 0 .2 0 .2 0v.9h-.3c-.8 0-1.3.6-1.3 1.4v3"/><path d="m151.1 231.6c0-.3-.1-.9-1.2-.9-.3 0-1 .1-1 .7 0 .4.3.5 1 .7l.9.2c1.1.3 1.5.7 1.5 1.4 0 1.1-.9 1.7-2.1 1.7-2.1 0-2.2-1.2-2.2-1.8h.8c0 .4.2 1.1 1.4 1.1.6 0 1.2-.2 1.2-.8 0-.4-.3-.6-1-.7l-1-.2c-.7-.2-1.2-.5-1.2-1.3 0-1.1 1-1.7 2-1.7 1.9 0 2 1.4 2 1.6h-1.1"/><path d="m153.2 229.2v-1h.9v1h-.9m.9 6.2h-.9v-5.2h.9v5.2"/><path d="m159.7 234.9c0 .8 0 2.6-2.4 2.6-.6 0-1.8-.2-2-1.6h.9c.2.8 1 .8 1.2.8 1.5 0 1.5-1.2 1.5-1.8v-.2c-.2.4-.7.7-1.4.7-1.8 0-2.3-1.7-2.3-2.9 0-1.5.8-2.6 2.2-2.6 1 0 1.3.6 1.6.9v-.7h.8v4.8zm-2.2-.1c.6 0 1.4-.4 1.4-1.8 0-.8-.1-2.2-1.4-2.2-1.4 0-1.4 1.3-1.4 2 0 1.1.4 2 1.4 2"/><path d="m165.2 235.4h-.9v-3.4c0-.7-.2-1.2-1-1.2-.7 0-1.5.4-1.5 1.7v2.8h-.8v-7.2h.9v2.6c.2-.3.7-.8 1.5-.8.8 0 1.8.3 1.8 1.8v3.7"/><path d="m167.6 230.9v3.4c0 .4.3.4.5.4h.3v.7c-.3 0-.6.1-.7.1-.9 0-1.1-.5-1.1-1.1v-3.4h-.6v-.7h.7v-1.5h.9v1.5h.8v.7h-.8z"/></g><path fill="#68ab47" d="m10.6 183.6l3.3-4.7h1.6v4.9h1.3v1.1h-1.3v1.8h-1.1v-1.8h-3.8v-1.3m3.8-3.6l-2.7 3.8h2.7v-3.8"/><circle fill="none" stroke="#68ab47" stroke-miterlimit="10" cx="13.8" cy="182.8" r="8.7"/></svg>